<?xml version="1.0" encoding="UTF-8"?>
<svg version="1.1" xmlns="http://www.w3.org/2000/svg" width="500" height="500">
<path d="M0 0 C0.75112061 0.00990967 1.50224121 0.01981934 2.27612305 0.0300293 C8.08927731 0.22449337 12.74838623 1.30342403 17.6875 4.5 C18.533125 5.03625 19.37875 5.5725 20.25 6.125 C20.9615625 6.805625 20.9615625 6.805625 21.6875 7.5 C21.6875 8.16 21.6875 8.82 21.6875 9.5 C22.3475 9.5 23.0075 9.5 23.6875 9.5 C24.161875 10.49 24.63625 11.48 25.125 12.5 C27.29916566 15.73080668 27.29916566 15.73080668 30.11328125 15.79296875 C32.03556617 15.72118218 33.95747601 15.63873621 35.87890625 15.546875 C41.2951925 15.45647801 44.87715774 16.86008072 48.88671875 20.4921875 C55.32039561 27.35323607 57.03337709 32.56751908 56.89453125 41.8828125 C56.64987378 44.97565227 55.72694849 47.58954422 54.6875 50.5 C54.88898199 54.4288988 56.51634208 57.22822624 58.5546875 60.55859375 C59.6875 62.5 59.6875 62.5 60.890625 65.5390625 C63.26020018 69.4437103 65.28400198 69.97427147 69.5625 71.4375 C86.88591327 77.69841327 86.88591327 77.69841327 92.6875 83.5 C92.8125 86.125 92.8125 86.125 92.6875 88.5 C92.0275 88.5 91.3675 88.5 90.6875 88.5 C90.3575 89.49 90.0275 90.48 89.6875 91.5 C88.0769043 92.57495117 88.0769043 92.57495117 86.01171875 93.54296875 C84.89313477 94.06987305 84.89313477 94.06987305 83.75195312 94.60742188 C82.96755859 94.96384766 82.18316406 95.32027344 81.375 95.6875 C80.60220703 96.05552734 79.82941406 96.42355469 79.03320312 96.80273438 C75.18579734 98.58583989 73.04294965 99.5 68.6875 99.5 C68.6875 100.16 68.6875 100.82 68.6875 101.5 C68.0275 102.16 67.3675 102.82 66.6875 103.5 C67.16960937 104.17804688 67.65171875 104.85609375 68.1484375 105.5546875 C72.39208761 111.80757603 74.97336044 116.95608937 75.6875 124.5 C75.81125 125.675625 75.935 126.85125 76.0625 128.0625 C75.23133925 135.68147351 71.40923883 142.42470762 65.6875 147.5 C60.3104697 150.64505546 55.73311737 150.87013984 49.6875 150.5 C49.89246094 151.22445312 50.09742188 151.94890625 50.30859375 152.6953125 C50.57800781 153.66210938 50.84742188 154.62890625 51.125 155.625 C51.52525391 157.05199219 51.52525391 157.05199219 51.93359375 158.5078125 C52.68674485 161.49700286 53.2093543 164.45580569 53.6875 167.5 C53.86410156 168.37914062 54.04070312 169.25828125 54.22265625 170.1640625 C55.73045249 178.63005916 55.90531465 186.97861137 55.9375 195.5625 C55.946604 196.73312988 55.95570801 197.90375977 55.96508789 199.10986328 C55.93034865 209.23812408 55.02459785 218.89773788 51.6875 228.5 C51.14504905 230.64563521 50.60342837 232.79148044 50.0625 234.9375 C47.74541739 243.14708856 43.88815503 250.11909198 39.6875 257.5 C39.27757812 258.30953125 38.86765625 259.1190625 38.4453125 259.953125 C30.1203866 276.35991327 16.16125466 288.65461567 1.6875 299.5 C0.52927734 300.36818359 0.52927734 300.36818359 -0.65234375 301.25390625 C-10.10643094 307.91350318 -21.18576868 313.36257037 -32.3125 316.5 C-33.64781126 316.91318673 -34.98237109 317.32880534 -36.31640625 317.74609375 C-49.06796473 321.68248709 -49.06796473 321.68248709 -54.5625 322.125 C-58.41371742 322.51012174 -60.33729477 323.06574118 -63.3125 325.5 C-64.50482613 327.55003955 -64.50482613 327.55003955 -65.3125 329.5 C-65.9725 329.83 -66.6325 330.16 -67.3125 330.5 C-66.86275338 335.53716213 -66.02447649 339.69936556 -64.125 344.375 C-63.2436204 346.68014665 -62.591753 348.99589816 -61.9375 351.375 C-61.40430571 353.08599661 -60.86232176 354.79427388 -60.3125 356.5 C-60.04566406 357.43199219 -59.77882813 358.36398437 -59.50390625 359.32421875 C-58.41441522 362.29594332 -57.53201531 364.23014517 -55.3125 366.5 C-50.64324742 367.74353974 -46.11814622 367.60874846 -41.3125 367.5 C-32.72638342 367.71693646 -26.07737592 369.82760668 -18.3125 373.5 C-18.3125 374.16 -18.3125 374.82 -18.3125 375.5 C-16.9925 376.16 -15.6725 376.82 -14.3125 377.5 C-13.95598517 380.70863349 -14.07566451 382.14001006 -15.875 384.875 C-18.3125 386.5 -18.3125 386.5 -21.6875 386.375 C-24.97994555 385.58027176 -28.13280437 384.66330328 -31.3125 383.5 C-31.704375 384.44875 -32.09625 385.3975 -32.5 386.375 C-34.3125 389.5 -34.3125 389.5 -36.5 391.125 C-40.79318406 391.69742454 -43.6967584 389.67123938 -47.3125 387.5 C-47.3125 386.84 -47.3125 386.18 -47.3125 385.5 C-52.29533716 384.35948394 -57.25718132 383.27774134 -62.3125 382.5 C-61.961875 383.056875 -61.61125 383.61375 -61.25 384.1875 C-60.06841887 387.1020668 -60.30317254 388.54965818 -61.3125 391.5 C-64.58070117 393.67880078 -64.92180107 393.72056653 -68.5625 393.25 C-69.4289917 393.14115479 -70.2954834 393.03230957 -71.18823242 392.92016602 C-73.21996485 392.6469292 -75.24792085 392.34331141 -77.26977539 392.00463867 C-90.7374628 389.88336181 -104.29635324 390.11892232 -117.8996582 390.04370117 C-121.17685412 390.02213288 -124.45347184 389.98277025 -127.73046875 389.94140625 C-129.23664009 389.94123253 -129.23664009 389.94123253 -130.77323914 389.9410553 C-131.70553848 389.92771652 -132.63783783 389.91437775 -133.59838867 389.90063477 C-134.41474289 389.89556412 -135.23109711 389.89049347 -136.07218933 389.88526917 C-138.87842483 389.40267716 -140.2646281 388.45581654 -142.3125 386.5 C-142.89890663 383.05486106 -142.83299401 381.29080582 -140.8984375 378.3515625 C-136.96721953 375.53676293 -133.16283519 375.86363999 -128.4375 375.8125 C-126.66919359 375.77002976 -124.90095695 375.72453039 -123.1328125 375.67578125 C-121.88806152 375.64411865 -121.88806152 375.64411865 -120.61816406 375.61181641 C-117.79810041 375.47505347 -115.07780205 375.06127418 -112.3125 374.5 C-113.31912622 364.76571024 -114.32599201 355.09441093 -116.3125 345.5 C-117.5190625 345.1596875 -117.5190625 345.1596875 -118.75 344.8125 C-123.22535739 343.16368412 -127.19971318 340.89455588 -131.3125 338.5 C-131.3125 337.84 -131.3125 337.18 -131.3125 336.5 C-131.9725 336.5 -132.6325 336.5 -133.3125 336.5 C-137.57481005 332.36366956 -141.27787394 327.59817179 -144.3125 322.5 C-144.3125 321.84 -144.3125 321.18 -144.3125 320.5 C-146.230625 320.1596875 -146.230625 320.1596875 -148.1875 319.8125 C-153.73896593 318.56731138 -158.33457721 316.19134485 -163.3125 313.5 C-164.37082031 312.95988281 -165.42914063 312.41976563 -166.51953125 311.86328125 C-172.52824041 308.7505041 -178.00435077 305.50336715 -183.234375 301.203125 C-186.01956866 298.92052268 -188.94560792 296.84876337 -191.87890625 294.76171875 C-192.35199219 294.34535156 -192.82507813 293.92898438 -193.3125 293.5 C-193.3125 292.84 -193.3125 292.18 -193.3125 291.5 C-193.9725 291.5 -194.6325 291.5 -195.3125 291.5 C-195.3125 290.84 -195.3125 290.18 -195.3125 289.5 C-195.9725 289.5 -196.6325 289.5 -197.3125 289.5 C-198.8203125 288.0390625 -198.8203125 288.0390625 -200.4375 286.125 C-200.97632813 285.49851562 -201.51515625 284.87203125 -202.0703125 284.2265625 C-203.3125 282.5 -203.3125 282.5 -203.3125 280.5 C-203.9725 280.5 -204.6325 280.5 -205.3125 280.5 C-206.6015625 279.0390625 -206.6015625 279.0390625 -207.9375 277.125 C-208.38351563 276.49851562 -208.82953125 275.87203125 -209.2890625 275.2265625 C-210.3125 273.5 -210.3125 273.5 -210.3125 271.5 C-210.9725 271.5 -211.6325 271.5 -212.3125 271.5 C-213.84946789 269.23531253 -215.25332595 266.98757769 -216.625 264.625 C-217.02799316 263.93897705 -217.43098633 263.2529541 -217.84619141 262.54614258 C-222.31883884 254.86806779 -226.25016223 247.49762562 -228.62109375 238.89453125 C-229.29658986 236.55510122 -230.10965287 234.32770873 -231 232.0625 C-232.3125 228.5 -232.3125 228.5 -232.3125 225.5 C-232.90417969 225.19707031 -233.49585938 224.89414062 -234.10546875 224.58203125 C-238.90167528 222.03918113 -242.65099574 219.59226947 -246.3125 215.5 C-246.910625 214.943125 -247.50875 214.38625 -248.125 213.8125 C-249.3125 212.5 -249.3125 212.5 -249.3125 210.5 C-249.9725 210.5 -250.6325 210.5 -251.3125 210.5 C-257.94601331 204.90297315 -261.90425173 193.23567997 -262.625 184.875 C-262.59977894 180.38565221 -261.0387134 176.83354866 -259.1875 172.796875 C-258.07516978 170.28665775 -258.07516978 170.28665775 -258.3125 166.5 C-259.43450395 164.43345191 -260.60899431 162.39517027 -261.8125 160.375 C-264.94822505 154.61906465 -266 149.60460548 -266 143.0625 C-266.00644531 142.31790527 -266.01289063 141.57331055 -266.01953125 140.80615234 C-265.81077602 134.34198857 -263.56191609 130.10088735 -259.3125 125.1875 C-257.37705348 123.554467 -255.58364852 122.58352711 -253.3125 121.5 C-253.5290625 120.73816406 -253.745625 119.97632813 -253.96875 119.19140625 C-257.09971231 107.58075433 -257.10546779 99.62778813 -252 88.6875 C-248.51062139 84.16423143 -243.78637913 81.81373099 -238.3125 80.5 C-231.95156295 79.97861172 -227.21365484 81.19085245 -221.3125 83.5 C-220.136875 83.933125 -218.96125 84.36625 -217.75 84.8125 C-213.49079666 86.90338164 -209.99834274 89.53775829 -206.3125 92.5 C-205.28125 93.304375 -204.25 94.10875 -203.1875 94.9375 C-199.86606677 97.89790788 -197.12073819 101.06055231 -194.3125 104.5 C-193.58546875 105.37398438 -192.8584375 106.24796875 -192.109375 107.1484375 C-185.47597408 115.16562735 -185.47597408 115.16562735 -182.5625 119.375 C-179.64484175 123.42730312 -176.79757907 126.60895256 -172.5 129.1875 C-171.778125 129.620625 -171.05625 130.05375 -170.3125 130.5 C-170.3125 131.16 -170.3125 131.82 -170.3125 132.5 C-169.62542969 132.768125 -168.93835938 133.03625 -168.23046875 133.3125 C-166.1752664 134.14888757 -164.13722829 135.02808301 -162.11328125 135.9375 C-155.235607 139.01820515 -148.81260904 141.47480524 -141.3125 142.5 C-139.61287109 142.79197266 -139.61287109 142.79197266 -137.87890625 143.08984375 C-119.31170522 145.95065116 -99.536669 144.93187603 -82.203125 137.26953125 C-80.3125 136.5 -80.3125 136.5 -78.3125 136.5 C-78.3125 135.84 -78.3125 135.18 -78.3125 134.5 C-76.80859375 133.4921875 -76.80859375 133.4921875 -74.75 132.375 C-66.86303827 127.58996502 -62.64974641 120.84021408 -58.57421875 112.72265625 C-57.3125 110.5 -57.3125 110.5 -55.3125 109.5 C-54.92317967 107.51014051 -54.59362064 105.50800456 -54.3125 103.5 C-53.9825 102.51 -53.6525 101.52 -53.3125 100.5 C-52.6525 100.5 -51.9925 100.5 -51.3125 100.5 C-51.10753906 99.24960938 -50.90257812 97.99921875 -50.69140625 96.7109375 C-49.32997057 90.58627618 -46.34939835 85.5262907 -43.25 80.125 C-42.15302642 78.1807704 -41.05788679 76.23550456 -39.96484375 74.2890625 C-39.48007568 73.44037598 -38.99530762 72.59168945 -38.49584961 71.71728516 C-37.19681049 69.43241603 -37.19681049 69.43241603 -36.3125 66.5 C-37.61458796 64.47951869 -38.95238391 62.48188345 -40.3125 60.5 C-43.07467853 54.56131615 -43.46482531 47.52278835 -41.66015625 41.22265625 C-39.40194814 36.17318662 -35.92984411 32.51423295 -31.3125 29.5 C-30.43980469 29.23960938 -29.56710937 28.97921875 -28.66796875 28.7109375 C-27.89066406 28.31132813 -27.11335937 27.91171875 -26.3125 27.5 C-25.37970091 24.7455788 -25.37970091 24.7455788 -25.0625 21.5 C-23.33923306 12.60794261 -18.39253642 7.80425485 -11.5390625 2.25390625 C-7.49009442 0.05295387 -4.52896411 -0.11429404 0 0 Z M-23.19140625 74.390625 C-30.06485359 84.46661779 -35.40432006 95.35743998 -40.3125 106.5 C-41.01449688 108.05649887 -41.71770344 109.61245251 -42.421875 111.16796875 C-43.15669496 112.79927881 -43.89107244 114.43078825 -44.625 116.0625 C-44.97506104 116.83706543 -45.32512207 117.61163086 -45.68579102 118.40966797 C-46.17583618 119.50819092 -46.17583618 119.50819092 -46.67578125 120.62890625 C-46.96751221 121.27931885 -47.25924316 121.92973145 -47.55981445 122.59985352 C-48.33038654 124.54515438 -48.85128565 126.4612004 -49.3125 128.5 C-49.9725 128.5 -50.6325 128.5 -51.3125 128.5 C-54.27485695 132.13323689 -54.27485695 132.13323689 -55.3125 136.5 C-55.88097656 136.75265625 -56.44945312 137.0053125 -57.03515625 137.265625 C-59.60362641 138.6577975 -61.54679186 140.33287454 -63.75 142.25 C-79.57610278 155.09268429 -99.76300316 157.89619816 -119.5 157.8125 C-120.52188919 157.80976578 -120.52188919 157.80976578 -121.56442261 157.80697632 C-144.5924978 157.70334205 -166.67520478 153.26098722 -184.3125 137.5 C-184.9725 137.5 -185.6325 137.5 -186.3125 137.5 C-186.3125 136.84 -186.3125 136.18 -186.3125 135.5 C-186.9725 135.5 -187.6325 135.5 -188.3125 135.5 C-188.580625 134.9225 -188.84875 134.345 -189.125 133.75 C-190.34179189 131.44449957 -191.61583879 129.47943808 -193.3125 127.5 C-193.9725 127.5 -194.6325 127.5 -195.3125 127.5 C-195.5496875 126.96890625 -195.786875 126.4378125 -196.03125 125.890625 C-197.68628384 122.80257405 -199.71798128 120.0471528 -201.8125 117.25 C-202.21597656 116.69570312 -202.61945313 116.14140625 -203.03515625 115.5703125 C-204.07700171 114.17430835 -205.18995412 112.83197608 -206.3125 111.5 C-206.9725 111.5 -207.6325 111.5 -208.3125 111.5 C-208.3125 110.84 -208.3125 110.18 -208.3125 109.5 C-208.9725 109.5 -209.6325 109.5 -210.3125 109.5 C-210.3125 108.84 -210.3125 108.18 -210.3125 107.5 C-211.76023743 105.91634563 -211.76023743 105.91634563 -213.625 104.375 C-214.23988281 103.83617187 -214.85476562 103.29734375 -215.48828125 102.7421875 C-217.35795048 101.21857878 -217.35795048 101.21857878 -220.3125 101.5 C-220.3125 100.84 -220.3125 100.18 -220.3125 99.5 C-228.32062719 94.74687096 -228.32062719 94.74687096 -237.3125 94.5 C-240.61158214 97.71449029 -241.60010541 100.63987782 -241.875 105.125 C-241.359031 116.56231294 -234.79884546 125.60375516 -227.2734375 133.69140625 C-226.62632812 134.39136719 -225.97921875 135.09132813 -225.3125 135.8125 C-224.714375 136.42738281 -224.11625 137.04226562 -223.5 137.67578125 C-222.3125 139.5 -222.3125 139.5 -222.5 141.66796875 C-223.3125 143.5 -223.3125 143.5 -225.3125 144.5 C-231.29029002 142.65231945 -236.36190686 139.85347195 -241.69921875 136.609375 C-244.78811627 135.29809414 -246.17578805 135.40989908 -249.3125 136.5 C-251.69840617 138.88590617 -251.68498852 139.5915793 -251.8125 142.875 C-251.6438103 151.8285303 -246.48871955 160.2336998 -240.3125 166.5 C-237.3400276 168.94308155 -234.20590763 171.16393617 -231.04492188 173.35546875 C-229.28452511 174.65574065 -227.74177333 175.84129516 -226.3125 177.5 C-225.89453125 180.84375 -225.89453125 180.84375 -226.3125 183.5 C-231.73092861 185.14194806 -235.95869646 183.54005273 -241 181.3125 C-243.59685533 180.40009137 -244.76972622 180.55823193 -247.3125 181.5 C-248.85847319 185.94467293 -247.464707 188.68189672 -245.66015625 192.84765625 C-240.72536612 202.55989537 -232.77775599 209.18345953 -223.15234375 214.12109375 C-219.0513857 217.55642175 -218.58853205 221.16736809 -217.4375 226.25 C-214.91165116 236.12369541 -211.37951997 244.67982052 -206.3125 253.5 C-205.75820312 254.469375 -205.20390625 255.43875 -204.6328125 256.4375 C-202.95211241 259.20381976 -201.17800542 261.85471331 -199.3125 264.5 C-198.93287109 265.03834473 -198.55324219 265.57668945 -198.16210938 266.13134766 C-183.0923272 287.17564584 -162.40470974 299.73919646 -138.3125 308.5 C-134.1498395 310.01369473 -132.76911451 312.53438276 -130.5 316.25 C-125.61524948 323.81728513 -120.13337531 329.78883964 -111.0703125 332.0625 C-107.78851652 332.58312486 -104.63518898 332.66959758 -101.3125 332.6875 C-100.11625 332.70167969 -98.92 332.71585937 -97.6875 332.73046875 C-94.43554792 332.50840258 -92.22979469 331.89787037 -89.3125 330.5 C-89.3125 329.84 -89.3125 329.18 -89.3125 328.5 C-88.5803125 328.24605469 -87.848125 327.99210937 -87.09375 327.73046875 C-79.89996869 324.54782674 -74.38954575 318.07588024 -70.3125 311.5 C-70.3125 310.84 -70.3125 310.18 -70.3125 309.5 C-69.64347656 309.47421875 -68.97445312 309.4484375 -68.28515625 309.421875 C-49.90704605 308.33645641 -30.78184288 302.83692358 -15.27734375 292.765625 C-13.3125 291.5 -13.3125 291.5 -10.125 290 C-6.98483169 288.32524357 -4.62790751 286.30505904 -2.0234375 283.90234375 C-0.21451333 282.41968673 1.59324861 281.52376183 3.6875 280.5 C9.83078854 274.88327904 16.0287272 268.39913806 20.6875 261.5 C20.6875 260.84 20.6875 260.18 20.6875 259.5 C21.3475 259.5 22.0075 259.5 22.6875 259.5 C28.175049 250.35776546 33.13566267 241.26774867 36.6875 231.1875 C36.96537354 230.41374023 37.24324707 229.63998047 37.52954102 228.84277344 C41.44064735 217.1984818 42.01111969 205.44632848 41.9375 193.25 C41.94523437 191.95320312 41.95296875 190.65640625 41.9609375 189.3203125 C41.94684986 182.40327889 41.53170863 176.16080962 39.6875 169.5 C39.35984312 168.08602199 39.03824153 166.67062739 38.72265625 165.25390625 C37.13286909 158.37343653 35.47025358 151.58543663 33.34375 144.84765625 C32.33200979 141.2282761 31.72501181 137.5532518 31.1171875 133.84765625 C30.71839963 131.35892906 30.71839963 131.35892906 29.6875 128.5 C29.56684544 126.39836585 29.51213991 124.29255967 29.5 122.1875 C29.48582031 121.07761719 29.47164063 119.96773438 29.45703125 118.82421875 C29.69458681 115.39778185 30.51503456 112.71153576 31.6875 109.5 C31.6875 108.84 31.6875 108.18 31.6875 107.5 C32.244375 107.2525 32.80125 107.005 33.375 106.75 C36.11160913 105.27075182 38.36400869 103.56532561 40.6875 101.5 C40.6875 100.84 40.6875 100.18 40.6875 99.5 C41.3475 99.5 42.0075 99.5 42.6875 99.5 C42.6875 98.84 42.6875 98.18 42.6875 97.5 C43.3475 97.5 44.0075 97.5 44.6875 97.5 C44.6875 96.51 44.6875 95.52 44.6875 94.5 C45.3475 94.5 46.0075 94.5 46.6875 94.5 C50.16410223 87.40717297 50.18124666 77.02884943 47.70703125 69.52734375 C44.49015326 63.59839017 41.02907003 59.89951299 34.6875 57.5 C34.3575 56.84 34.0275 56.18 33.6875 55.5 C28.75735944 52.41866215 24.34335919 51.84071441 18.6875 51.5 C17.470625 51.37625 16.25375 51.2525 15 51.125 C-0.59920395 51.49640962 -14.12582901 62.61369163 -23.19140625 74.390625 Z M63.6875 82.5 C63.3575 84.81 63.0275 87.12 62.6875 89.5 C65.3275 88.51 67.9675 87.52 70.6875 86.5 C67.8584277 83.6709277 67.30605575 83.12388892 63.6875 82.5 Z M-100.3125 347.5 C-100.58182521 352.15052872 -100.58182521 352.15052872 -99.3125 356.5 C-98.94396056 359.14599799 -98.61126372 361.78363788 -98.3125 364.4375 C-97.70499469 370.04481393 -97.70499469 370.04481393 -96.3125 375.5 C-91.78109347 376.43380961 -91.78109347 376.43380961 -87.3125 375.5 C-87.3125 374.84 -87.3125 374.18 -87.3125 373.5 C-85.9925 373.17 -84.6725 372.84 -83.3125 372.5 C-83.3125 371.84 -83.3125 371.18 -83.3125 370.5 C-81.9925 370.83 -80.6725 371.16 -79.3125 371.5 C-79.3125 370.84 -79.3125 370.18 -79.3125 369.5 C-78.178125 369.37625 -77.04375 369.2525 -75.875 369.125 C-74.699375 368.91875 -73.52375 368.7125 -72.3125 368.5 C-71.01886645 366.48009373 -71.01886645 366.48009373 -72.02514648 364.06982422 C-72.40743408 363.0748291 -72.78972168 362.07983398 -73.18359375 361.0546875 C-73.59287109 359.97832031 -74.00214844 358.90195312 -74.42382812 357.79296875 C-75.0802832 356.10107422 -75.0802832 356.10107422 -75.75 354.375 C-76.18376953 353.23933594 -76.61753906 352.10367187 -77.06445312 350.93359375 C-78.14034909 348.119712 -79.22329566 345.30875134 -80.3125 342.5 C-87.28486938 342.5 -93.76420476 345.2726887 -100.3125 347.5 Z " fill="#0A592B" transform="translate(342.3125,53.5)"/>
<path d="M0 0 C0.86625 0.515625 1.7325 1.03125 2.625 1.5625 C7.62045751 6.68941692 9.48062714 13.98846645 10 21 C10.12375 22.155 10.2475 23.31 10.375 24.5 C10.21273338 34.92563062 4.74657665 45.62209615 -1 54 C-1.46921875 54.71414063 -1.9384375 55.42828125 -2.421875 56.1640625 C-3.54636982 57.82434603 -4.76414748 59.42085512 -6 61 C-6.66 61 -7.32 61 -8 61 C-8.3403125 61.8353125 -8.3403125 61.8353125 -8.6875 62.6875 C-10.37550036 65.66159588 -12.46676517 67.72008865 -15 70 C-15.66 70 -16.32 70 -17 70 C-17.33 70.99 -17.66 71.98 -18 73 C-20.0625 73.6875 -20.0625 73.6875 -22 74 C-22 74.66 -22 75.32 -22 76 C-22.99 76 -23.98 76 -25 76 C-25 76.66 -25 77.32 -25 78 C-32.51012245 81.93200128 -39.93588273 85.38051493 -48 88 C-48.99128906 88.37382812 -49.98257813 88.74765625 -51.00390625 89.1328125 C-68.77001432 95.02053777 -90.83866508 94.5672028 -108 87 C-108 86.34 -108 85.68 -108 85 C-108.99 85 -109.98 85 -111 85 C-112.60546875 83.13671875 -112.60546875 83.13671875 -114.1875 80.6875 C-114.71730469 79.88699219 -115.24710938 79.08648437 -115.79296875 78.26171875 C-117 76 -117 76 -117 73 C-118.30517578 72.81824219 -118.30517578 72.81824219 -119.63671875 72.6328125 C-128.75514461 70.91715049 -137.42275561 66.5928673 -144 60 C-144.495 58.515 -144.495 58.515 -145 57 C-145.66 57 -146.32 57 -147 57 C-151.37140598 52.00216201 -153.2146455 46.59087946 -153 40 C-151.99831842 35.49243291 -149.78030572 33.55170636 -146 31 C-145.34 31 -144.68 31 -144 31 C-144.71027344 30.11957031 -145.42054688 29.23914063 -146.15234375 28.33203125 C-147.08120294 27.15922924 -148.0095622 25.98603116 -148.9375 24.8125 C-149.64036133 23.9452832 -149.64036133 23.9452832 -150.35742188 23.06054688 C-152.90195075 19.82039139 -154.84385072 17.27551598 -155 13 C-153.18547936 9.92927276 -151.80954861 8.37363782 -148.5625 6.875 C-146 7 -146 7 -143.5625 9.125 C-142.2940625 10.548125 -142.2940625 10.548125 -141 12 C-130.83731224 21.91481732 -116.71739362 24.35901938 -103.0222168 24.23022461 C-81.88689132 23.71690625 -62.23842368 14.26064623 -43.6875 4.8125 C-30.53054614 -1.87163294 -13.92597896 -8.95241505 0 0 Z " fill="#DAEBDD" transform="translate(307,236)"/>
<path d="M0 0 C3.14818625 1.2592745 4.900123 3.41167092 7.1875 5.875 C7.785625 6.41125 8.38375 6.9475 9 7.5 C10.1875 8.875 10.1875 8.875 10.1875 11.875 C10.68507812 12.1225 11.18265625 12.37 11.6953125 12.625 C13.75674225 13.65894596 15.81258942 14.70259827 17.8671875 15.75 C19.26556944 16.45844302 20.66400857 17.16677315 22.0625 17.875 C22.75730469 18.23078125 23.45210937 18.5865625 24.16796875 18.953125 C28.10454379 20.9399463 31.94884475 22.59941723 36.1875 23.875 C36.375 26.25 36.375 26.25 36.1875 28.875 C33.17659584 30.88226944 31.90857067 31.24139769 28.44140625 31.69140625 C27.52166016 31.81580078 26.60191406 31.94019531 25.65429688 32.06835938 C24.69587891 32.19017578 23.73746094 32.31199219 22.75 32.4375 C20.85522801 32.68698044 18.96068621 32.93821698 17.06640625 33.19140625 C16.2266626 33.29912354 15.38691895 33.40684082 14.52172852 33.51782227 C12.36150365 33.8483744 10.29603213 34.30618527 8.1875 34.875 C8.6630518 39.1549662 11.10110173 41.06918339 14.1875 43.875 C14.93 44.555625 15.6725 45.23625 16.4375 45.9375 C25.0089505 51.97647649 34.59197371 54.23706927 44.9375 54.0625 C45.67871094 54.06185547 46.41992188 54.06121094 47.18359375 54.06054688 C50.69353438 54.03219008 53.80603291 53.75324695 57.1875 52.875 C58.76961573 52.80951508 60.35420081 52.78921619 61.9375 52.8125 C62.73671875 52.82152344 63.5359375 52.83054687 64.359375 52.83984375 C64.96265625 52.85144531 65.5659375 52.86304688 66.1875 52.875 C66.03515625 55.17578125 66.03515625 55.17578125 65.1875 57.875 C59.27086701 62.06870946 52.26671294 64.5136129 45.1875 65.875 C46.00042726 68.02935265 46.00042726 68.02935265 48.06396484 68.71337891 C54.74479193 70.78646462 60.83824347 71.34849055 67.8125 71.25 C68.86501953 71.23912354 69.91753906 71.22824707 71.00195312 71.21704102 C90.6223251 70.81953348 106.79656391 65.3827841 122.515625 53.79296875 C125.1875 51.875 125.1875 51.875 127.421875 50.86328125 C129.7348112 49.56865103 130.08348961 48.25846429 131.1875 45.875 C132.53650741 44.2489143 133.91518137 42.64726381 135.3125 41.0625 C139.00156076 36.62847543 141.92892363 32.15809693 144.625 27.0625 C144.9545166 26.44076904 145.2840332 25.81903809 145.62353516 25.1784668 C147.51080418 21.49903134 148.98270073 17.82843679 150.1875 13.875 C152.1789056 13.49366701 154.18029077 13.16174418 156.1875 12.875 C157.1875 13.875 157.1875 13.875 157.5625 17 C157.40981898 27.61133093 152.050582 38.32724361 146.1875 46.875 C145.71828125 47.58914063 145.2490625 48.30328125 144.765625 49.0390625 C143.64113018 50.69934603 142.42335252 52.29585512 141.1875 53.875 C140.5275 53.875 139.8675 53.875 139.1875 53.875 C138.960625 54.431875 138.73375 54.98875 138.5 55.5625 C136.81199964 58.53659588 134.72073483 60.59508865 132.1875 62.875 C131.5275 62.875 130.8675 62.875 130.1875 62.875 C129.8575 63.865 129.5275 64.855 129.1875 65.875 C127.125 66.5625 127.125 66.5625 125.1875 66.875 C125.1875 67.535 125.1875 68.195 125.1875 68.875 C124.1975 68.875 123.2075 68.875 122.1875 68.875 C122.1875 69.535 122.1875 70.195 122.1875 70.875 C114.67737755 74.80700128 107.25161727 78.25551493 99.1875 80.875 C98.19621094 81.24882812 97.20492187 81.62265625 96.18359375 82.0078125 C78.41748568 87.89553777 56.34883492 87.4422028 39.1875 79.875 C39.1875 79.215 39.1875 78.555 39.1875 77.875 C38.1975 77.875 37.2075 77.875 36.1875 77.875 C34.58203125 76.01171875 34.58203125 76.01171875 33 73.5625 C32.47019531 72.76199219 31.94039062 71.96148437 31.39453125 71.13671875 C30.1875 68.875 30.1875 68.875 30.1875 65.875 C28.88232422 65.69324219 28.88232422 65.69324219 27.55078125 65.5078125 C18.43235539 63.79215049 9.76474439 59.4678673 3.1875 52.875 C2.6925 51.39 2.6925 51.39 2.1875 49.875 C1.5275 49.875 0.8675 49.875 0.1875 49.875 C-4.18390598 44.87716201 -6.0271455 39.46587946 -5.8125 32.875 C-4.81081842 28.36743291 -2.59280572 26.42670636 1.1875 23.875 C1.8475 23.875 2.5075 23.875 3.1875 23.875 C2.47722656 22.99457031 1.76695312 22.11414063 1.03515625 21.20703125 C0.10629706 20.03422924 -0.8220622 18.86103116 -1.75 17.6875 C-2.45286133 16.8202832 -2.45286133 16.8202832 -3.16992188 15.93554688 C-5.70932438 12.70191922 -7.67880377 10.14585179 -7.8125 5.875 C-3.76902174 -0.25993253 -3.76902174 -0.25993253 0 0 Z " fill="#0C592C" transform="translate(159.8125,243.125)"/>
<path d="M0 0 C6.18114336 3.99198842 9.49677632 9.12316888 12 15.9375 C16.14093698 16.14720559 16.14093698 16.14720559 20 14.9375 C24.69156368 14.4309772 28.72193263 14.36367384 33.0625 16.3125 C35.92507796 20.19083143 36.11583771 24.18815384 36 28.9375 C35.67 29.5975 35.34 30.2575 35 30.9375 C32.07941839 30.52997698 29.42837339 30.11116489 26.6875 29 C13.92074661 23.95267889 0.41171457 25.11724685 -12.17578125 30.2265625 C-18.02780012 33.00757274 -23.10516042 36.25320308 -28.0625 40.421875 C-29.96420847 41.90950179 -31.80842437 42.93955038 -34 43.9375 C-37.36944106 39.44491192 -37.6041049 36.37444413 -37 30.9375 C-35.6875 28.5 -35.6875 28.5 -33 26.9375 C-29.33812326 26.32104017 -25.70866291 26.06538493 -22 25.9375 C-21.44117007 21.95583672 -20.9862108 18.33738674 -21.125 14.3125 C-20.95747671 9.78937117 -19.7840732 6.74594578 -16.5703125 3.48828125 C-11.31149946 -1.0772057 -6.64855852 -2.35469781 0 0 Z " fill="#4CAC61" transform="translate(350,67.0625)"/>
<path d="M0 0 C4.58326943 1.52775648 6.06539111 4.79810588 8.52734375 8.8125 C10.89829828 13.94432731 11.10637584 18.49217244 10 24 C8.75995591 27.2842752 8.02777398 27.82000274 5 30 C0.46486951 30.92314449 -3.31408764 31.11421889 -7.2578125 28.5078125 C-9.80012579 24.84824942 -9.80538561 21.62445756 -9.8125 17.25 C-9.81765625 16.44320801 -9.8228125 15.63641602 -9.828125 14.80517578 C-9.67462827 10.6932988 -9.34296014 8.5028313 -6.98046875 5.0390625 C-4.74261785 3.08666975 -2.58004032 1.4640705 0 0 Z " fill="#49AA5F" transform="translate(394,161)"/>
<path d="M0 0 C0.68707555 2.49064888 1 4.37886292 1 7 C0.01 7 -0.98 7 -2 7 C-1.34 8.32 -0.68 9.64 0 11 C-0.95117134 12.1725131 -1.91117009 13.33787015 -2.875 14.5 C-3.40867187 15.1496875 -3.94234375 15.799375 -4.4921875 16.46875 C-4.98976563 16.9740625 -5.48734375 17.479375 -6 18 C-6.66 18 -7.32 18 -8 18 C-7.34 21.96 -6.68 25.92 -6 30 C-4.68 30 -3.36 30 -2 30 C-1.67 29.01 -1.34 28.02 -1 27 C-0.01 27 0.98 27 2 27 C2 25.68 2 24.36 2 23 C2.66 23 3.32 23 4 23 C3.95875 22.2575 3.9175 21.515 3.875 20.75 C4.00398134 17.91241048 4.57051222 16.41226062 6 14 C6.66 14 7.32 14 8 14 C8 13.34 8 12.68 8 12 C8.66 12 9.32 12 10 12 C8.17050784 16.74412428 6.00532226 21.31374571 3.8125 25.89697266 C2.22730712 29.24520537 0.74436007 32.58523885 -0.546875 36.05859375 C-0.91570801 37.02067749 -0.91570801 37.02067749 -1.29199219 38.00219727 C-1.96518326 39.78290371 -2.60844404 41.57484055 -3.25 43.3671875 C-5 46 -5 46 -8.5 46.9453125 C-12 47 -12 47 -15 46 C-15.66 45.01 -16.32 44.02 -17 43 C-18.485 43.495 -18.485 43.495 -20 44 C-19.690625 43.2575 -19.38125 42.515 -19.0625 41.75 C-18.1905075 39.49307824 -17.52332993 37.3549847 -17 35 C-16.34 35 -15.68 35 -15 35 C-14.855625 34.071875 -14.71125 33.14375 -14.5625 32.1875 C-14 29 -14 29 -13 26 C-12.34 26 -11.68 26 -11 26 C-10.76539063 24.70191406 -10.53078125 23.40382812 -10.2890625 22.06640625 C-9.13056686 16.85317589 -6.97299039 12.56922974 -4.375 7.9375 C-3.95476562 7.16728516 -3.53453125 6.39707031 -3.1015625 5.60351562 C-2.0776448 3.73021165 -1.04023627 1.86429176 0 0 Z " fill="#0A582B" transform="translate(302,128)"/>
<path d="M0 0 C0.66 0.33 1.32 0.66 2 1 C2 1.66 2 2.32 2 3 C2.99 3.33 3.98 3.66 5 4 C6.47694566 7.91390601 7.60226148 10.99434629 6 15 C5.34 15 4.68 15 4 15 C3.835 15.639375 3.67 16.27875 3.5 16.9375 C2 19 2 19 -1.875 19.875 C-5.16248732 20.10684811 -7.39320108 20.22060649 -10 18 C-12.29147823 14.60229091 -13 12.55333147 -13 8.4375 C-10.92273045 1.29688592 -7.25315922 -0.82111236 0 0 Z " fill="#165F33" transform="translate(371,122)"/>
<path d="M0 0 C1.19820648 11.74242347 -4.51804841 23.53323221 -11 33 C-12.04449911 29.86650268 -11.93423645 29.01031744 -11 26 C-11.66 26 -12.32 26 -13 26 C-13 25.34 -13 24.68 -13 24 C-15.31 24.66 -17.62 25.32 -20 26 C-19.48050781 25.12859375 -18.96101563 24.2571875 -18.42578125 23.359375 C-14.38079707 16.48018323 -10.83840374 9.72262807 -8.0078125 2.23046875 C-6.13893714 -1.90568563 -3.9052885 -0.92493675 0 0 Z " fill="#0C592C" transform="translate(317,257)"/>
<path d="M0 0 C-0.309375 0.928125 -0.309375 0.928125 -0.625 1.875 C-0.74875 2.57625 -0.8725 3.2775 -1 4 C-0.34 4.66 0.32 5.32 1 6 C1 7.32 1 8.64 1 10 C2.98 10 4.96 10 7 10 C7 10.66 7 11.32 7 12 C5.29237946 12.97099991 3.5840315 13.94075496 1.87109375 14.90234375 C-0.16953345 16.0619006 -0.16953345 16.0619006 -2.625 17.875 C-5 19 -5 19 -7.5625 18.125 C-8.366875 17.75375 -9.17125 17.3825 -10 17 C-12.24240782 17.28739925 -12.24240782 17.28739925 -14 18 C-15.43088528 15.13822943 -14.59991697 13.06624227 -14 10 C-15.4589426 10.47730838 -16.91713496 10.95691042 -18.375 11.4375 C-19.18710937 11.70433594 -19.99921875 11.97117187 -20.8359375 12.24609375 C-23.01031799 12.95179729 -23.01031799 12.95179729 -25 14 C-26.32 14 -27.64 14 -29 14 C-29 13.34 -29 12.68 -29 12 C-27.96101563 11.63648438 -26.92203125 11.27296875 -25.8515625 10.8984375 C-18.40206311 8.232602 -11.53312575 5.54202933 -4.91796875 1.1015625 C-3 0 -3 0 0 0 Z " fill="#0D5B2E" transform="translate(332,344)"/>
<path d="M0 0 C9.37213462 0.66943819 15.58790041 4.44092531 23 10 C20.8614515 12.1385485 19.86724686 12.42655063 17 13 C17.66 13.33 18.32 13.66 19 14 C19 18 19 18 18 20 C14.71585695 20.95067299 13.30306592 21.10102197 10 20 C10 19.34 10 18.68 10 18 C9.2575 17.896875 8.515 17.79375 7.75 17.6875 C4.82985982 16.95746496 3.26812446 15.93210602 1 14 C2.65 13.67 4.3 13.34 6 13 C5.67 12.67 5.34 12.34 5 12 C4.67 11.01 4.34 10.02 4 9 C4.66 9 5.32 9 6 9 C5.34 7.68 4.68 6.36 4 5 C4.99 4.34 5.98 3.68 7 3 C6.030625 2.87625 5.06125 2.7525 4.0625 2.625 C3.051875 2.41875 2.04125 2.2125 1 2 C0.67 1.34 0.34 0.68 0 0 Z " fill="#105E32" transform="translate(112,135)"/>
<path d="M0 0 C0 0.66 0 1.32 0 2 C0.66 2 1.32 2 2 2 C1.59080462 7.93333307 0.81109992 11.38048494 -3 16 C-3.66 16 -4.32 16 -5 16 C-5 16.66 -5 17.32 -5 18 C-7.97 18.66 -10.94 19.32 -14 20 C-14 19.34 -14 18.68 -14 18 C-15.32 17.34 -16.64 16.68 -18 16 C-17.2575 15.525625 -16.515 15.05125 -15.75 14.5625 C-12.99729029 11.99747505 -12.39391254 10.82494478 -11.125 7.4375 C-9.7491147 4.00906451 -8.80988631 2.41364949 -5.375 0.9375 C-2 0 -2 0 0 0 Z M-20 18 C-16 19 -16 19 -16 19 Z " fill="#0B592D" transform="translate(304,281)"/>
<path d="M0 0 C1.98 0.66 3.96 1.32 6 2 C6.21278058 6.46839215 5.59138085 9.82262526 4 14 C3.34 14 2.68 14 2 14 C2 15.32 2 16.64 2 18 C1.01 18 0.02 18 -1 18 C-1.33 19.32 -1.66 20.64 -2 22 C-3.65 22 -5.3 22 -7 22 C-7.2765289 19.92002174 -7.52030075 17.8356692 -7.75 15.75 C-7.88921875 14.58984375 -8.0284375 13.4296875 -8.171875 12.234375 C-8 9 -8 9 -6.15625 6.75 C-5.4446875 6.1725 -4.733125 5.595 -4 5 C-2.64843325 3.34808509 -1.31037934 1.68477344 0 0 Z " fill="#025424" transform="translate(302,137)"/>
<path d="M0 0 C0.66 0 1.32 0 2 0 C2.33 0.66 2.66 1.32 3 2 C3.92039063 2.43505859 3.92039063 2.43505859 4.859375 2.87890625 C7.40194538 4.21050789 8.55427133 5.63798915 10.25 7.9375 C10.77078125 8.62714844 11.2915625 9.31679688 11.828125 10.02734375 C13 12 13 12 13 15 C11.02 15 9.04 15 7 15 C6.67 15.99 6.34 16.98 6 18 C5.34 16.68 4.68 15.36 4 14 C1.69 14.33 -0.62 14.66 -3 15 C-3.99 12.03 -4.98 9.06 -6 6 C-4 4 -2 2 0 0 Z " fill="#045425" transform="translate(138,315)"/>
<path d="M0 0 C7.75 -0.125 7.75 -0.125 10 1 C10 1.66 10 2.32 10 3 C11.32 3.66 12.64 4.32 14 5 C14.35651483 8.20863349 14.23683549 9.64001006 12.4375 12.375 C10 14 10 14 6.625 13.875 C3.33373686 13.08055717 0.19439344 12.11432329 -3 11 C-3.66 11 -4.32 11 -5 11 C-5 10.34 -5 9.68 -5 9 C-3.35 9 -1.7 9 0 9 C-0.37125 8.2575 -0.7425 7.515 -1.125 6.75 C-2 4 -2 4 -1.125 1.6875 C-0.75375 1.130625 -0.3825 0.57375 0 0 Z " fill="#055224" transform="translate(314,426)"/>
<path d="M0 0 C1.9375 0.9375 1.9375 0.9375 3.25 2.6875 C4.11897911 5.53143164 3.8959171 7.13597309 2.9375 9.9375 C-0.33070117 12.11630078 -0.67180107 12.15806653 -4.3125 11.6875 C-5.18132812 11.58050781 -6.05015625 11.47351563 -6.9453125 11.36328125 C-7.97398437 11.22277344 -9.00265625 11.08226562 -10.0625 10.9375 C-11.39314651 10.76368892 -12.72388103 10.59055081 -14.0546875 10.41796875 C-17.72584106 9.93806807 -21.39453476 9.44123389 -25.0625 8.9375 C-25.0625 8.6075 -25.0625 8.2775 -25.0625 7.9375 C-22.7714095 7.74308632 -20.47959663 7.55716865 -18.1875 7.375 C-16.27324219 7.21837891 -16.27324219 7.21837891 -14.3203125 7.05859375 C-11.0625 6.9375 -11.0625 6.9375 -9.0625 7.9375 C-9.0625 8.5975 -9.0625 9.2575 -9.0625 9.9375 C-7.4125 9.2775 -5.7625 8.6175 -4.0625 7.9375 C-4.289375 7.174375 -4.51625 6.41125 -4.75 5.625 C-5.0625 2.9375 -5.0625 2.9375 -3.875 1.0625 C-2.0625 -0.0625 -2.0625 -0.0625 0 0 Z " fill="#045523" transform="translate(278.0625,435.0625)"/>
<path d="M0 0 C1.396478 0.45636536 2.7921508 0.91519488 4.1875 1.375 C5.35345703 1.75785156 5.35345703 1.75785156 6.54296875 2.1484375 C8.1819323 2.71647256 9.80445849 3.33432041 11.40625 4 C14.33783042 5.13024787 17.25943246 5.88689576 20.3125 6.625 C21.38113281 6.88539063 22.44976562 7.14578125 23.55078125 7.4140625 C24.76314453 7.70410156 24.76314453 7.70410156 26 8 C25.67 8.99 25.34 9.98 25 11 C25.99 12.485 25.99 12.485 27 14 C21.20263589 13.49983525 16.94020163 11.81162677 11.8125 9.125 C10.76545898 8.59712891 10.76545898 8.59712891 9.69726562 8.05859375 C2.78886372 4.52222817 2.78886372 4.52222817 0 2 C0 1.34 0 0.68 0 0 Z " fill="#E4ECE4" transform="translate(170,253)"/>
<path d="M0 0 C1.8125 0.875 1.8125 0.875 3.8125 2.875 C3.58006497 7.29126552 1.88289996 8.90055004 -1.1875 11.875 C-1.9747678 14.0131966 -1.9747678 14.0131966 -2.1875 15.875 C-1.5275 16.205 -0.8675 16.535 -0.1875 16.875 C-1.1775 16.875 -2.1675 16.875 -3.1875 16.875 C-6.00768348 13.75265401 -8.12019297 10.35575465 -8.3125 6.125 C-6.55111791 2.60223582 -4.16854968 -0.23820284 0 0 Z " fill="#044F23" transform="translate(160.1875,243.125)"/>
<path d="M0 0 C0.84381994 8.26943544 -2.21127025 15.3509127 -5 23 C-6.76462683 19.91190305 -7 18.76687864 -7 15 C-7.66 14.34 -8.32 13.68 -9 13 C-8.34 12.67 -7.68 12.34 -7 12 C-7 8.04 -7 4.08 -7 0 C-4.3333581 -1.33332095 -2.83319697 -0.67102033 0 0 Z " fill="#095729" transform="translate(317,257)"/>
<path d="M0 0 C0.66 0 1.32 0 2 0 C3.40234375 1.42578125 3.40234375 1.42578125 4.9375 3.3125 C6.46923974 5.18114413 7.90868846 6.91827826 9.7109375 8.53125 C10.13632813 9.0159375 10.56171875 9.500625 11 10 C10.6875 13.1875 10.6875 13.1875 10 16 C9.34 16 8.68 16 8 16 C7.67 17.32 7.34 18.64 7 20 C6.34 20 5.68 20 5 20 C5 20.66 5 21.32 5 22 C5.99 22.33 6.98 22.66 8 23 C7.01 23 6.02 23 5 23 C4.67 23.99 4.34 24.98 4 26 C1.36 22.7 -1.28 19.4 -4 16 C-1 15 -1 15 1.1875 15.9375 C1.785625 16.288125 2.38375 16.63875 3 17 C5.52259061 15.02579865 5.9929808 14.03254358 6.6875 10.8125 C6.790625 9.884375 6.89375 8.95625 7 8 C6.360625 7.896875 5.72125 7.79375 5.0625 7.6875 C4.381875 7.460625 3.70125 7.23375 3 7 C2.67 6.01 2.34 5.02 2 4 C1.01 3.67 0.02 3.34 -1 3 C-0.67 2.01 -0.34 1.02 0 0 Z " fill="#115C31" transform="translate(140,151)"/>
<path d="M0 0 C1.0546875 1.8046875 1.0546875 1.8046875 2 4 C1.125 7.125 1.125 7.125 0 10 C0 10.66 0 11.32 0 12 C-0.66 12 -1.32 12 -2 12 C-2.33 12.99 -2.66 13.98 -3 15 C-1.68 14.67 -0.36 14.34 1 14 C0.67 15.65 0.34 17.3 0 19 C0.66 19.33 1.32 19.66 2 20 C1.01 21.98 0.02 23.96 -1 26 C-3.78009969 20.81048058 -4.77068369 15.9052387 -4 10 C-2.87919585 6.56417242 -1.50695357 3.28300599 0 0 Z " fill="#145A33" transform="translate(84,224)"/>
<path d="M0 0 C0.8971875 0.928125 0.8971875 0.928125 1.8125 1.875 C4.00811144 4.13676954 4.00811144 4.13676954 7 6 C7 6.99 7 7.98 7 9 C5.35 9.33 3.7 9.66 2 10 C2 10.66 2 11.32 2 12 C1.01 12 0.02 12 -1 12 C-1 12.66 -1 13.32 -1 14 C-0.34 14.33 0.32 14.66 1 15 C-0.65 15 -2.3 15 -4 15 C-4 11 -4 11 -3 9 C-0.9375 7.875 -0.9375 7.875 1 7 C0.67 4.69 0.34 2.38 0 0 Z " fill="#1E5E3A" transform="translate(88,168)"/>
<path d="M0 0 C1.12894876 0.93274109 2.25300876 1.87140122 3.375 2.8125 C4.00148438 3.33457031 4.62796875 3.85664063 5.2734375 4.39453125 C7 6 7 6 9 9 C8.8125 11.0625 8.8125 11.0625 8 13 C7.01 13.66 6.02 14.32 5 15 C2.95703125 14.5390625 2.95703125 14.5390625 0.8125 13.625 C0.09707031 13.32851562 -0.61835937 13.03203125 -1.35546875 12.7265625 C-2.16951172 12.36691406 -2.16951172 12.36691406 -3 12 C-1 11 -1 11 3 11 C3 9.02 3 7.04 3 5 C2.01 4.67 1.02 4.34 0 4 C0 2.68 0 1.36 0 0 Z " fill="#42795E" transform="translate(112,184)"/>
<path d="M0 0 C3.465 1.485 3.465 1.485 7 3 C7 3.99 7 4.98 7 6 C4.36 6.66 1.72 7.32 -1 8 C-1 7.34 -1 6.68 -1 6 C-2.32 5.34 -3.64 4.68 -5 4 C-3.35 2.68 -1.7 1.36 0 0 Z M-7 6 C-3 7 -3 7 -3 7 Z " fill="#015323" transform="translate(291,293)"/>
<path d="M0 0 C0.68707555 2.49064888 1 4.37886292 1 7 C0.01 7 -0.98 7 -2 7 C-1.34 8.32 -0.68 9.64 0 11 C-0.95117134 12.1725131 -1.91117009 13.33787015 -2.875 14.5 C-3.40867187 15.1496875 -3.94234375 15.799375 -4.4921875 16.46875 C-4.98976563 16.9740625 -5.48734375 17.479375 -6 18 C-6.66 18 -7.32 18 -8 18 C-8.33 18.99 -8.66 19.98 -9 21 C-8.38367054 16.04001528 -6.20164371 12.06328034 -3.9375 7.6875 C-3.37192383 6.57665039 -3.37192383 6.57665039 -2.79492188 5.44335938 C-1.86871843 3.62612478 -0.93509371 1.81267596 0 0 Z " fill="#3D7654" transform="translate(302,128)"/>
<path d="M0 0 C0 0.66 0 1.32 0 2 C2.64 1.34 5.28 0.68 8 0 C8 0.66 8 1.32 8 2 C8.99 2.33 9.98 2.66 11 3 C8.56742632 4.21628684 7.49677381 3.98875016 4.8125 3.6875 C3.49572266 3.54054688 3.49572266 3.54054688 2.15234375 3.390625 C-3.90477138 2.64005311 -9.95331721 1.8304111 -16 1 C-16 0.67 -16 0.34 -16 0 C-10.39436958 -0.82622671 -5.57710648 -1.06795656 0 0 Z " fill="#3D7655" transform="translate(269,443)"/>
<path d="M0 0 C2.02045442 0.60183749 4.02111039 1.27306096 6 2 C7.72105424 5.44210849 7.51474617 9.23633647 7 13 C5 15.5625 5 15.5625 3 17 C2.34 16.67 1.68 16.34 1 16 C1.53625 15.278125 2.0725 14.55625 2.625 13.8125 C4.33083079 11.09844598 4.33083079 11.09844598 3.3125 8.375 C1.96020737 5.85034512 1.96020737 5.85034512 0 3 C0 2.01 0 1.02 0 0 Z " fill="#386F4F" transform="translate(302,111)"/>
<path d="M0 0 C0 0.99 0 1.98 0 3 C-4.67209049 4.43023178 -9.13103697 5.40380045 -14 6 C-14.33 5.34 -14.66 4.68 -15 4 C-13.02 3.34 -11.04 2.68 -9 2 C-9 1.34 -9 0.68 -9 0 C-5.52176885 -1.15941038 -3.54104422 -0.70820884 0 0 Z " fill="#216740" transform="translate(256,395)"/>
<path d="M0 0 C0.66 0.66 1.32 1.32 2 2 C1.6875 3.875 1.6875 3.875 1 6 C0.87625 6.680625 0.7525 7.36125 0.625 8.0625 C-0.11919817 10.36951432 -1.190755 11.42674348 -3 13 C-3.99 12.67 -4.98 12.34 -6 12 C-6 11.34 -6 10.68 -6 10 C-6.99 9.67 -7.98 9.34 -9 9 C-8.34 9 -7.68 9 -7 9 C-7.33 8.01 -7.66 7.02 -8 6 C-6.68 6 -5.36 6 -4 6 C-1.548356 4.09316578 -1.00671686 3.02015057 0 0 Z " fill="#035223" transform="translate(122,278)"/>
<path d="M0 0 C0.33 0 0.66 0 1 0 C0.75 3.375 0.75 3.375 0 7 C-2.89239925 9.00820685 -5.30359032 9.23969756 -8.765625 9.1953125 C-9.65507812 9.18886719 -10.54453125 9.18242187 -11.4609375 9.17578125 C-12.38132813 9.15902344 -13.30171875 9.14226562 -14.25 9.125 C-15.18585938 9.11597656 -16.12171875 9.10695313 -17.0859375 9.09765625 C-19.39088657 9.07413636 -21.6953116 9.04126853 -24 9 C-24 8.67 -24 8.34 -24 8 C-23.37432129 7.91435791 -22.74864258 7.82871582 -22.10400391 7.74047852 C-19.27715353 7.35146482 -16.45108268 6.9570505 -13.625 6.5625 C-12.14773437 6.36043945 -12.14773437 6.36043945 -10.640625 6.15429688 C-9.69960937 6.02216797 -8.75859375 5.89003906 -7.7890625 5.75390625 C-6.48509521 5.57323608 -6.48509521 5.57323608 -5.15478516 5.38891602 C-2.95965439 5.09700837 -2.95965439 5.09700837 -1 4 C-0.34786708 1.97536745 -0.34786708 1.97536745 0 0 Z " fill="#B5DAC0" transform="translate(196,268)"/>
<path d="M0 0 C0.33 0.66 0.66 1.32 1 2 C1.89847656 1.82597656 2.79695312 1.65195313 3.72265625 1.47265625 C9.28444615 0.67811484 14.84819845 1.14891292 20.4375 1.4375 C21.55060547 1.48970703 22.66371094 1.54191406 23.81054688 1.59570312 C26.54070323 1.72459463 29.27041935 1.85952327 32 2 C32 2.33 32 2.66 32 3 C27.98036212 3.19345033 23.96035628 3.371972 19.93945312 3.53710938 C18.57371568 3.59525335 17.20814084 3.65736558 15.84277344 3.72363281 C13.8722278 3.81856421 11.90094211 3.89771232 9.9296875 3.9765625 C8.74616699 4.02893066 7.56264648 4.08129883 6.34326172 4.13525391 C2.86887366 3.9946952 0.22524793 3.2583191 -3 2 C-2.01 1.34 -1.02 0.68 0 0 Z " fill="#0D4E28" transform="translate(204,208)"/>
<path d="M0 0 C0.66 0.33 1.32 0.66 2 1 C1.67 2.98 1.34 4.96 1 7 C14.86 7.495 14.86 7.495 29 8 C29 8.33 29 8.66 29 9 C24.56255461 9.05793591 20.12520611 9.09357467 15.6875 9.125 C14.42486328 9.14175781 13.16222656 9.15851563 11.86132812 9.17578125 C10.04858398 9.18544922 10.04858398 9.18544922 8.19921875 9.1953125 C7.08377686 9.20578613 5.96833496 9.21625977 4.8190918 9.22705078 C2 9 2 9 -1 7 C-1.25 3.9375 -1.25 3.9375 -1 1 C-0.67 0.67 -0.34 0.34 0 0 Z " fill="#125430" transform="translate(201,433)"/>
<path d="M0 0 C-0.66 1.65 -1.32 3.3 -2 5 C-3.65 4.67 -5.3 4.34 -7 4 C-6.67 4.99 -6.34 5.98 -6 7 C-7.65 7.66 -9.3 8.32 -11 9 C-12.65 7.68 -14.3 6.36 -16 5 C-14.989375 4.9175 -13.97875 4.835 -12.9375 4.75 C-8.23985395 4.11027991 -4.41425684 0 0 0 Z " fill="#306B4A" transform="translate(257,381)"/>
<path d="M0 0 C0.66 0 1.32 0 2 0 C1.21803204 5.08279172 -2.05257144 9.77028572 -6 13 C-6.66 13 -7.32 13 -8 13 C-9 10 -9 10 -8.375 7.875 C-7 6 -7 6 -4.375 5.25 C-3.199375 5.12625 -3.199375 5.12625 -2 5 C-1.855625 4.360625 -1.71125 3.72125 -1.5625 3.0625 C-1 1 -1 1 0 0 Z " fill="#24653D" transform="translate(414,188)"/>
<path d="M0 0 C0.66 0 1.32 0 2 0 C0.34178272 4.29478275 -1.55379056 8.45571451 -3.5 12.625 C-3.80808594 13.29273438 -4.11617188 13.96046875 -4.43359375 14.6484375 C-5.80464749 17.5906129 -7.19563049 20.29344573 -9 23 C-9 20.36 -9 17.72 -9 15 C-8.01 15 -7.02 15 -6 15 C-6 13.68 -6 12.36 -6 11 C-5.34 11 -4.68 11 -4 11 C-4.061875 9.88625 -4.061875 9.88625 -4.125 8.75 C-3.99601866 5.91241048 -3.42948778 4.41226062 -2 2 C-1.34 2 -0.68 2 0 2 C0 1.34 0 0.68 0 0 Z " fill="#3B6C50" transform="translate(310,140)"/>
<path d="M0 0 C0.66 0.33 1.32 0.66 2 1 C2 1.66 2 2.32 2 3 C2.66 3.33 3.32 3.66 4 4 C2.7315625 3.6596875 2.7315625 3.6596875 1.4375 3.3125 C-3.08443791 2.90141474 -5.04177744 3.8268582 -9 6 C-9.33 6.99 -9.66 7.98 -10 9 C-10.99 8.67 -11.98 8.34 -13 8 C-9.28075428 1.44704326 -7.90616275 -0.57499365 0 0 Z " fill="#386E4D" transform="translate(371,122)"/>
<path d="M0 0 C1.90318884 2.85478326 2.4619099 4.41941308 3.125 7.6875 C3.29257813 8.49574219 3.46015625 9.30398438 3.6328125 10.13671875 C3.75398437 10.75160156 3.87515625 11.36648438 4 12 C0.01647791 14.30903272 -2.50114053 13.86516528 -7 13 C-6.67 12.34 -6.34 11.68 -6 11 C-2.9375 10.375 -2.9375 10.375 0 10 C-0.2784375 8.63875 -0.2784375 8.63875 -0.5625 7.25 C-0.95734621 4.31685676 -0.94691572 2.7355343 0 0 Z " fill="#457A5B" transform="translate(230,418)"/>
<path d="M0 0 C1.39195915 4.17587745 -0.17676781 6.13474776 -2 10 C-2.99 10 -3.98 10 -5 10 C-5.33 13.3 -5.66 16.6 -6 20 C-6.33 20 -6.66 20 -7 20 C-7.55131189 13.38425728 -6.75992183 8.55814532 -3 3 C-2.0270602 1.97365301 -1.03347429 0.96536567 0 0 Z " fill="#3A7A54" transform="translate(307,86)"/>
<path d="M0 0 C0.66 0 1.32 0 2 0 C3 1 4 2 5 3 C5.99 3.33 6.98 3.66 8 4 C8.33 4.99 8.66 5.98 9 7 C8.34 7 7.68 7 7 7 C7.33 8.65 7.66 10.3 8 12 C7.34 12 6.68 12 6 12 C4.4921875 10.13671875 4.4921875 10.13671875 2.875 7.6875 C2.33617187 6.88699219 1.79734375 6.08648437 1.2421875 5.26171875 C0 3 0 3 0 0 Z " fill="#276241" transform="translate(190,309)"/>
<path d="M0 0 C1.21236328 0.01353516 1.21236328 0.01353516 2.44921875 0.02734375 C3.37154297 0.04474609 3.37154297 0.04474609 4.3125 0.0625 C3.9825 1.0525 3.6525 2.0425 3.3125 3.0625 C1.9925 3.0625 0.6725 3.0625 -0.6875 3.0625 C-1.0175 3.7225 -1.3475 4.3825 -1.6875 5.0625 C-2.0175 4.4025 -2.3475 3.7425 -2.6875 3.0625 C-4.0075 3.0625 -5.3275 3.0625 -6.6875 3.0625 C-6.6875 4.0525 -6.6875 5.0425 -6.6875 6.0625 C-8.0075 6.3925 -9.3275 6.7225 -10.6875 7.0625 C-7.85913236 1.40576472 -6.62984043 -0.09608464 0 0 Z " fill="#296C46" transform="translate(279.6875,361.9375)"/>
<path d="M0 0 C0.66 0 1.32 0 2 0 C1.64930333 2.59515537 1.33376494 4.52570246 -0.1875 6.6875 C-2.80358859 8.58190898 -4.53932601 8.09491075 -7.6875 7.6875 C-9.17830078 7.50767578 -9.17830078 7.50767578 -10.69921875 7.32421875 C-11.45847656 7.21722656 -12.21773437 7.11023438 -13 7 C-13 6.34 -13 5.68 -13 5 C-10.03 5 -7.06 5 -4 5 C-4 4.34 -4 3.68 -4 3 C-3.34 3 -2.68 3 -2 3 C-1.67 2.34 -1.34 1.68 -1 1 C-0.67 0.67 -0.34 0.34 0 0 Z " fill="#38794E" transform="translate(259,424)"/>
<path d="M0 0 C0.33 0.66 0.66 1.32 1 2 C-1.2392516 5.53566043 -3.06119434 6.68706478 -7 8 C-8.2684375 8.61875 -8.2684375 8.61875 -9.5625 9.25 C-12 10 -12 10 -14.15234375 9.046875 C-14.76207031 8.70140625 -15.37179688 8.3559375 -16 8 C-14.04350603 7.16235732 -12.08474444 6.33000941 -10.125 5.5 C-9.03445313 5.0359375 -7.94390625 4.571875 -6.8203125 4.09375 C-4 3 -4 3 -2 3 C-2 2.34 -2 1.68 -2 1 C-1.34 0.67 -0.68 0.34 0 0 Z " fill="#46795C" transform="translate(266,187)"/>
<path d="M0 0 C0 1.98 0 3.96 0 6 C0.66 6.33 1.32 6.66 2 7 C-1.71888239 6.49287967 -4.73454239 5.88391785 -8 4 C-8 3.34 -8 2.68 -8 2 C-5.09399739 0.74335022 -3.20395416 0 0 0 Z " fill="#BADFC4" transform="translate(213,307)"/>
<path d="M0 0 C1.32 0.33 2.64 0.66 4 1 C-0.15383313 6.94568272 -3.95129485 9.35530213 -11 11 C-11.66 10.34 -12.32 9.68 -13 9 C-12.14535156 8.60167969 -11.29070312 8.20335937 -10.41015625 7.79296875 C-9.30542969 7.26316406 -8.20070312 6.73335938 -7.0625 6.1875 C-5.96035156 5.66542969 -4.85820312 5.14335937 -3.72265625 4.60546875 C-0.71259223 3.23205279 -0.71259223 3.23205279 0 0 Z " fill="#C2E1CB" transform="translate(226,297)"/>
<path d="M0 0 C1.32 0 2.64 0 4 0 C3.73781251 4.4571874 3.42288711 6.51522698 0.4375 9.9375 C-0.366875 10.618125 -1.17125 11.29875 -2 12 C-2 8.7 -2 5.4 -2 2 C-1.34 2 -0.68 2 0 2 C0 1.34 0 0.68 0 0 Z " fill="#034D1F" transform="translate(387,241)"/>
<path d="M0 0 C0.33 0 0.66 0 1 0 C1 1.98 1 3.96 1 6 C-5.23160816 8.51916075 -8.89468757 7.57502973 -15 5 C-15 4.67 -15 4.34 -15 4 C-10.66666667 4 -6.33333333 4 -2 4 C-1.34 2.68 -0.68 1.36 0 0 Z " fill="#3C664F" transform="translate(116,231)"/>
<path d="M0 0 C0.66 0 1.32 0 2 0 C3.40234375 1.42578125 3.40234375 1.42578125 4.9375 3.3125 C6.86463171 5.66350211 8.81719293 7.88235135 11 10 C10.67 10.99 10.34 11.98 10 13 C8.68 12.67 7.36 12.34 6 12 C6.33 10.68 6.66 9.36 7 8 C6.360625 7.896875 5.72125 7.79375 5.0625 7.6875 C4.381875 7.460625 3.70125 7.23375 3 7 C2.67 6.01 2.34 5.02 2 4 C1.01 3.67 0.02 3.34 -1 3 C-0.67 2.01 -0.34 1.02 0 0 Z " fill="#3E7254" transform="translate(140,151)"/>
<path d="M0 0 C2.64 0 5.28 0 8 0 C7.01 0.495 7.01 0.495 6 1 C6.33 2.32 6.66 3.64 7 5 C4.39417629 5.93065133 3.35801776 6.14917407 0.75 5.0625 C0.1725 4.711875 -0.405 4.36125 -1 4 C-0.67 2.68 -0.34 1.36 0 0 Z " fill="#CAE7D2" transform="translate(168,277)"/>
<path d="M0 0 C5.13574754 0.43523284 8.77764767 0.80124824 13 4 C13.33 4.66 13.66 5.32 14 6 C8.72250715 5.46148032 4.74354436 4.22656164 0 2 C0 1.34 0 0.68 0 0 Z " fill="#C1E4CC" transform="translate(183,261)"/>
<path d="M0 0 C1.65 0.99 3.3 1.98 5 3 C2.53846154 7.8 2.53846154 7.8 -0.1875 8.8125 C-0.785625 8.874375 -1.38375 8.93625 -2 9 C-2.6875 7.1875 -2.6875 7.1875 -3 5 C-1.5625 3.375 -1.5625 3.375 0 2 C0 1.34 0 0.68 0 0 Z M-4 10 C-3.67 10.66 -3.34 11.32 -3 12 C-3.66 11.67 -4.32 11.34 -5 11 C-4.67 10.67 -4.34 10.34 -4 10 Z " fill="#015122" transform="translate(313,82)"/>
<path d="M0 0 C1.2380014 3.57644848 0.74926071 6.33694766 0 10 C-1.5 8.625 -1.5 8.625 -3 7 C-3 6.34 -3 5.68 -3 5 C-3.66 5 -4.32 5 -5 5 C-5.66 3.68 -6.32 2.36 -7 1 C-4.50935112 0.31292445 -2.62113708 0 0 0 Z " fill="#256542" transform="translate(142,329)"/>
<path d="M0 0 C1.65 0.33 3.3 0.66 5 1 C3.92598892 3.91517292 3.22189824 5.77810176 1 8 C-2.625 8.125 -2.625 8.125 -6 8 C-5.67 7.34 -5.34 6.68 -5 6 C-4.01 6 -3.02 6 -2 6 C-1.34 4.02 -0.68 2.04 0 0 Z " fill="#035427" transform="translate(259,198)"/>
<path d="M0 0 C0 0.99 0 1.98 0 3 C-0.99 3 -1.98 3 -3 3 C-3.33 3.99 -3.66 4.98 -4 6 C-7.4375 7.125 -7.4375 7.125 -11 8 C-11.99 8.495 -11.99 8.495 -13 9 C-14.32 9 -15.64 9 -17 9 C-17 8.34 -17 7.68 -17 7 C-15.85660156 6.57847656 -14.71320313 6.15695312 -13.53515625 5.72265625 C-12.04421741 5.16941479 -10.55333489 4.61602153 -9.0625 4.0625 C-8.30775391 3.78470703 -7.55300781 3.50691406 -6.77539062 3.22070312 C-3.11220861 2.08246549 -3.11220861 2.08246549 0 0 Z " fill="#40745C" transform="translate(320,349)"/>
<path d="M0 0 C1.98 0.66 3.96 1.32 6 2 C6.33 3.98 6.66 5.96 7 8 C2.25 7.125 2.25 7.125 0 6 C0 4.02 0 2.04 0 0 Z " fill="#CFE8D4" transform="translate(213,307)"/>
<path d="M0 0 C1.875 0.25 1.875 0.25 4 1 C5.38495802 3.14668494 6 4.43871412 6 7 C6.32033957 9.00212229 6.65259077 11.00239695 7 13 C6.01 13 5.02 13 4 13 C3.79503906 12.31292969 3.59007813 11.62585938 3.37890625 10.91796875 C3.10949219 10.01691406 2.84007813 9.11585938 2.5625 8.1875 C2.16224609 6.84751953 2.16224609 6.84751953 1.75390625 5.48046875 C1.19612127 3.64526945 0.60655425 1.81966274 0 0 Z " fill="#417456" transform="translate(112,287)"/>
<path d="M0 0 C2.64597242 4.48797629 1.96091068 8.0455798 1 13 C-0.0625 16.0625 -0.0625 16.0625 -1 18 C-1.66 18 -2.32 18 -3 18 C-3 18.99 -3 19.98 -3 21 C-3.66 20.67 -4.32 20.34 -5 20 C-4.72285156 19.2265625 -4.44570313 18.453125 -4.16015625 17.65625 C-2.09610345 11.72118003 -0.48233374 6.27033868 0 0 Z " fill="#447658" transform="translate(382,267)"/>
<path d="M0 0 C-0.33 1.32 -0.66 2.64 -1 4 C-4.40562852 4.77842938 -7.50765756 5.09978121 -11 5 C-11 4.34 -11 3.68 -11 3 C-4.5 0 -4.5 0 0 0 Z " fill="#45795D" transform="translate(414,140)"/>
<path d="M0 0 C0.99 0.33 1.98 0.66 3 1 C2.01 2.485 2.01 2.485 1 4 C0.34 4 -0.32 4 -1 4 C-0.67 5.32 -0.34 6.64 0 8 C-1.32 8.99 -2.64 9.98 -4 11 C-5 9 -5 9 -4.25 5.5 C-3 2 -3 2 0 0 Z " fill="#175C34" transform="translate(311,83)"/>
<path d="M0 0 C4.79166667 4.79166667 4.79166667 4.79166667 5 10 C4.0625 13.375 4.0625 13.375 3 16 C2.67 16 2.34 16 2 16 C1.34 10.72 0.68 5.44 0 0 Z " fill="#43775A" transform="translate(227,402)"/>
<path d="M0 0 C0.66 0 1.32 0 2 0 C2.66 0.99 3.32 1.98 4 3 C4.99 3 5.98 3 7 3 C6.01 3.495 6.01 3.495 5 4 C5.34227572 6.97065509 5.34227572 6.97065509 6 10 C6.66 10.33 7.32 10.66 8 11 C7.01 11 6.02 11 5 11 C3.61328125 9.35546875 3.61328125 9.35546875 2.3125 7.1875 C1.87550781 6.47980469 1.43851563 5.77210938 0.98828125 5.04296875 C0 3 0 3 0 0 Z " fill="#3B7F50" transform="translate(152,249)"/>
<path d="M0 0 C1.27310312 0.93441535 2.543388 1.87267111 3.8125 2.8125 C4.52019531 3.33457031 5.22789062 3.85664063 5.95703125 4.39453125 C7.78531393 5.83128877 9.39896688 7.31815763 11 9 C8.33333333 8.33333333 5.66666667 7.66666667 3 7 C3 6.34 3 5.68 3 5 C1.68 4.67 0.36 4.34 -1 4 C-0.67 2.68 -0.34 1.36 0 0 Z " fill="#255D3C" transform="translate(159,336)"/>
<path d="M0 0 C0.33 0.66 0.66 1.32 1 2 C-1.1221675 7.04014781 -4.24069715 8.75014774 -9 11 C-9.66 10.67 -10.32 10.34 -11 10 C-5.25 5 -5.25 5 -3 5 C-2.690625 4.360625 -2.38125 3.72125 -2.0625 3.0625 C-1 1 -1 1 0 0 Z " fill="#22633E" transform="translate(292,288)"/>
<path d="M0 0 C0.66 0.99 1.32 1.98 2 3 C0.90398831 4.00893131 -0.20213918 5.00688225 -1.3125 6 C-2.23482422 6.8353125 -2.23482422 6.8353125 -3.17578125 7.6875 C-5 9 -5 9 -8 9 C-6.90101298 5.70303895 -6.05402613 4.95329411 -3.4375 2.8125 C-2.79683594 2.28269531 -2.15617187 1.75289063 -1.49609375 1.20703125 C-0.75552734 0.60955078 -0.75552734 0.60955078 0 0 Z " fill="#3E7753" transform="translate(266,372)"/>
<path d="M0 0 C2 2 2 2 2 5 C4.64 5.33 7.28 5.66 10 6 C9.67 6.99 9.34 7.98 9 9 C4.16743695 8.58578031 2.17320782 6.53586014 -1 3 C-0.67 2.01 -0.34 1.02 0 0 Z " fill="#2A6745" transform="translate(165,293)"/>
<path d="M0 0 C0.66 0 1.32 0 2 0 C0.07289294 10.55808656 0.07289294 10.55808656 -2 15 C-3.85776765 11.86501708 -4.20140476 9.62528568 -4 6 C-2.68 6 -1.36 6 0 6 C0 4.02 0 2.04 0 0 Z " fill="#38764C" transform="translate(314,265)"/>
<path d="M0 0 C1.27310312 0.93441535 2.543388 1.87267111 3.8125 2.8125 C4.52019531 3.33457031 5.22789063 3.85664063 5.95703125 4.39453125 C7.78531393 5.83128877 9.39896688 7.31815763 11 9 C7.13351728 7.95902388 3.50538557 6.96301592 0 5 C0 3.33333333 0 1.66666667 0 0 Z " fill="#427152" transform="translate(105,222)"/>
<path d="M0 0 C1.32 0.33 2.64 0.66 4 1 C3.979375 2.093125 3.95875 3.18625 3.9375 4.3125 C3.81455548 7.94384191 3.81455548 7.94384191 5 11 C4.01 12.485 4.01 12.485 3 14 C2.01 9.38 1.02 4.76 0 0 Z " fill="#58866D" transform="translate(377,205)"/>
<path d="M0 0 C0.99 0 1.98 0 3 0 C3.33 2.31 3.66 4.62 4 7 C2.02 7.66 0.04 8.32 -2 9 C-2 8.34 -2 7.68 -2 7 C-3.32 6.67 -4.64 6.34 -6 6 C-3.69 5.34 -1.38 4.68 1 4 C0.67 2.68 0.34 1.36 0 0 Z " fill="#467C62" transform="translate(269,417)"/>
<path d="M0 0 C0.66 0 1.32 0 2 0 C5 6.625 5 6.625 5 10 C4.34 10 3.68 10 3 10 C3 9.34 3 8.68 3 8 C1.68 7.67 0.36 7.34 -1 7 C-1 6.01 -1 5.02 -1 4 C-0.34 4 0.32 4 1 4 C0.67 2.68 0.34 1.36 0 0 Z " fill="#438257" transform="translate(275,395)"/>
<path d="M0 0 C0 0.66 0 1.32 0 2 C-6.75 6 -6.75 6 -9 6 C-8.25 3.5625 -8.25 3.5625 -7 1 C-4.50523949 -0.04618989 -2.73143089 0 0 0 Z " fill="#265E3F" transform="translate(339,354)"/>
<path d="M0 0 C2.17854707 3.2678206 3.49760034 6.38058265 5 10 C4.34 10 3.68 10 3 10 C2.67 10.66 2.34 11.32 2 12 C-1 5.375 -1 5.375 -1 2 C-0.67 1.34 -0.34 0.68 0 0 Z " fill="#376B4F" transform="translate(91,202)"/>
<path d="M0 0 C-0.33 0.99 -0.66 1.98 -1 3 C-5.9141272 4.00802609 -10.99472983 4.59062188 -16 4 C-16.66 3.34 -17.32 2.68 -18 2 C-17.24074219 1.93941406 -16.48148438 1.87882813 -15.69921875 1.81640625 C-14.70535156 1.73261719 -13.71148437 1.64882812 -12.6875 1.5625 C-11.70136719 1.48128906 -10.71523437 1.40007812 -9.69921875 1.31640625 C-6.20718379 0.90706496 -3.59803152 0 0 0 Z " fill="#3F7256" transform="translate(245,196)"/>
<path d="M0 0 C1.16402344 0.00773437 1.16402344 0.00773437 2.3515625 0.015625 C3.12242187 0.01046875 3.89328125 0.0053125 4.6875 0 C7.1757986 0.28874455 8.81890448 1.02423271 10.9765625 2.265625 C5.74910391 3.4719616 1.21127936 3.02175077 -4.0234375 2.265625 C-2.0234375 0.265625 -2.0234375 0.265625 0 0 Z " fill="#387351" transform="translate(374.0234375,68.734375)"/>
<path d="M0 0 C2.00720923 0.28674418 4.0085944 0.61866701 6 1 C5.39816251 3.02045442 4.72693904 5.02111039 4 7 C3.01 7.495 3.01 7.495 2 8 C2 7.34 2 6.68 2 6 C1.34 5.67 0.68 5.34 0 5 C-0.6875 3 -0.6875 3 -1 1 C-0.67 0.67 -0.34 0.34 0 0 Z " fill="#005221" transform="translate(244,388)"/>
<path d="M0 0 C2.52259061 1.97420135 2.9929808 2.96745642 3.6875 6.1875 C3.790625 7.115625 3.89375 8.04375 4 9 C3.34 9 2.68 9 2 9 C2 10.65 2 12.3 2 14 C1.67 14 1.34 14 1 14 C-0.512545 8.83955235 -1.33500455 5.34001821 0 0 Z " fill="#3A6F51" transform="translate(372,176)"/>
<path d="M0 0 C0.99 0.33 1.98 0.66 3 1 C2.71382813 1.56203125 2.42765625 2.1240625 2.1328125 2.703125 C0.98584069 5.02870923 -0.07839794 7.37770201 -1.125 9.75 C-1.47820312 10.54921875 -1.83140625 11.3484375 -2.1953125 12.171875 C-2.46085937 12.77515625 -2.72640625 13.3784375 -3 14 C-3.66 13.67 -4.32 13.34 -5 13 C-4.67 11.68 -4.34 10.36 -4 9 C-3.34 9 -2.68 9 -2 9 C-1.855625 8.071875 -1.71125 7.14375 -1.5625 6.1875 C-1 3 -1 3 0 0 Z " fill="#477559" transform="translate(289,154)"/>
<path d="M0 0 C0.66 0 1.32 0 2 0 C1.5020163 3.73487777 1.12508244 5.81237635 -1 9 C-2.32 9 -3.64 9 -5 9 C-5 8.34 -5 7.68 -5 7 C-4.34 7 -3.68 7 -3 7 C-3 6.01 -3 5.02 -3 4 C-2.34 4 -1.68 4 -1 4 C-0.67 2.68 -0.34 1.36 0 0 Z " fill="#336A4B" transform="translate(390,144)"/>
<path d="M0 0 C2.475 0.99 2.475 0.99 5 2 C1.49461443 3.96301592 -2.13351728 4.95902388 -6 6 C-6.33 5.01 -6.66 4.02 -7 3 C-6.21625 2.87625 -5.4325 2.7525 -4.625 2.625 C-1.85942178 2.20882007 -1.85942178 2.20882007 0 0 Z " fill="#397552" transform="translate(345,104)"/>
<path d="M0 0 C3.44216672 2.6598561 3.99504674 5.90288286 5 10 C4.01 10.495 4.01 10.495 3 11 C3 10.34 3 9.68 3 9 C2.34 9 1.68 9 1 9 C-1.125 3.375 -1.125 3.375 0 0 Z " fill="#3E795C" transform="translate(281,410)"/>
<path d="M0 0 C1.67542976 0.28604898 3.34385343 0.61781233 5 1 C4.01 1.33 3.02 1.66 2 2 C2 2.66 2 3.32 2 4 C-3.75 7 -3.75 7 -6 7 C-6 6.34 -6 5.68 -6 5 C-5.01 5 -4.02 5 -3 5 C-2.5359375 4.0409375 -2.5359375 4.0409375 -2.0625 3.0625 C-1 1 -1 1 0 0 Z " fill="#3E7458" transform="translate(280,310)"/>
<path d="M0 0 C2.97 0.99 5.94 1.98 9 3 C9 4.32 9 5.64 9 7 C5.56072421 5.7580393 2.74792181 4.44259716 0 2 C0 1.34 0 0.68 0 0 Z " fill="#B7D3C0" transform="translate(170,253)"/>
<path d="M0 0 C4.875 4.625 4.875 4.625 6 8 C6.66 8.33 7.32 8.66 8 9 C4.62537285 8.45276317 2.91765 7.9451 0 6 C-0.1875 2.875 -0.1875 2.875 0 0 Z " fill="#3A814B" transform="translate(96,212)"/>
<path d="M0 0 C2.4375 0.375 2.4375 0.375 5 1 C5.33 1.66 5.66 2.32 6 3 C8.01669827 4.13350534 8.01669827 4.13350534 10 5 C9.34 6.32 8.68 7.64 8 9 C8 8.34 8 7.68 8 7 C7.34 7 6.68 7 6 7 C6 6.34 6 5.68 6 5 C4.68 4.34 3.36 3.68 2 3 C2 2.34 2 1.68 2 1 C1.34 0.67 0.68 0.34 0 0 Z " fill="#518268" transform="translate(126,156)"/>
<path d="M0 0 C1.32 0.33 2.64 0.66 4 1 C2.68 3.64 1.36 6.28 0 9 C-2 8 -2 8 -2.8125 6.1875 C-3 4 -3 4 -1.5625 1.75 C-1.046875 1.1725 -0.53125 0.595 0 0 Z " fill="#36664C" transform="translate(101,148)"/>
<path d="M0 0 C2.8203125 0.4609375 2.8203125 0.4609375 6.125 1.375 C7.22070312 1.67148437 8.31640625 1.96796875 9.4453125 2.2734375 C10.28835937 2.51320313 11.13140625 2.75296875 12 3 C11.01 3.33 10.02 3.66 9 4 C8.67 4.66 8.34 5.32 8 6 C7.278125 5.525625 6.55625 5.05125 5.8125 4.5625 C3.10524774 3.05847097 1.03805725 2.43400818 -2 2 C-1.34 1.34 -0.68 0.68 0 0 Z " fill="#4C8764" transform="translate(225,383)"/>
<path d="M0 0 C1.79206547 0.14084796 3.58364917 0.28783701 5.375 0.4375 C6.87160156 0.55931641 6.87160156 0.55931641 8.3984375 0.68359375 C11 1 11 1 13 2 C13 2.66 13 3.32 13 4 C7.76824163 4.38281159 4.62197306 3.21854707 0 1 C0 0.67 0 0.34 0 0 Z " fill="#427E52" transform="translate(193,195)"/>
<path d="M0 0 C2.31 0.66 4.62 1.32 7 2 C6.67 2.66 6.34 3.32 6 4 C2.9375 4.625 2.9375 4.625 0 5 C-0.5625 3.0625 -0.5625 3.0625 -1 1 C-0.67 0.67 -0.34 0.34 0 0 Z " fill="#2B6545" transform="translate(267,315)"/>
<path d="M0 0 C2.52349243 3.12432397 4.27256146 6.38060496 6 10 C4.68 10.33 3.36 10.66 2 11 C0.57741188 7.17679443 -0.24042276 4.08718695 0 0 Z " fill="#407054" transform="translate(131,298)"/>
<path d="M0 0 C4.59965514 -0.10696872 8.82241639 -0.0887918 13 2 C12.67 2.99 12.34 3.98 12 5 C10.56068883 4.54738642 9.12361001 4.08767021 7.6875 3.625 C6.88699219 3.36976563 6.08648437 3.11453125 5.26171875 2.8515625 C3 2 3 2 0 0 Z " fill="#3B7551" transform="translate(176,304)"/>
<path d="M0 0 C1.65 0 3.3 0 5 0 C5 0.66 5 1.32 5 2 C6.98 2 8.96 2 11 2 C11 2.99 11 3.98 11 5 C6.87248551 4.39301257 3.6678852 2.96189209 0 1 C0 0.67 0 0.34 0 0 Z " fill="#BEE1C8" transform="translate(177,290)"/>
<path d="M0 0 C0.86625 0.3403125 0.86625 0.3403125 1.75 0.6875 C0.46937515 2.3949998 -0.86767557 4.06123596 -2.25 5.6875 C-2.91 5.6875 -3.57 5.6875 -4.25 5.6875 C-4.25 5.0275 -4.25 4.3675 -4.25 3.6875 C-4.91 3.3575 -5.57 3.0275 -6.25 2.6875 C-2.80384615 -0.38942308 -2.80384615 -0.38942308 0 0 Z " fill="#387D62" transform="translate(160.25,243.3125)"/>
<path d="M0 0 C1.62566606 0.47690204 3.25051311 0.95659666 4.875 1.4375 C5.77992188 1.70433594 6.68484375 1.97117187 7.6171875 2.24609375 C10 3 10 3 12 4 C11.67 4.66 11.34 5.32 11 6 C9.53815942 5.77139942 8.08044581 5.51629608 6.625 5.25 C5.40683594 5.04117188 5.40683594 5.04117188 4.1640625 4.828125 C2 4 2 4 0.7109375 1.921875 C0.47632813 1.28765625 0.24171875 0.6534375 0 0 Z " fill="#55896D" transform="translate(408,124)"/>
<path d="M0 0 C2.5 1.375 2.5 1.375 5 3 C5 3.66 5 4.32 5 5 C5.66 5 6.32 5 7 5 C7.33 5.99 7.66 6.98 8 8 C6.35 7.67 4.7 7.34 3 7 C2.67 6.01 2.34 5.02 2 4 C1.01 3.34 0.02 2.68 -1 2 C-0.67 1.34 -0.34 0.68 0 0 Z " fill="#437657" transform="translate(359,58)"/>
<path d="M0 0 C1.5625 1.6875 1.5625 1.6875 3 4 C2.6875 6.75 2.6875 6.75 2 9 C0.5 7.8125 0.5 7.8125 -1 6 C-1.25 3.375 -1.25 3.375 -1 1 C-0.67 0.67 -0.34 0.34 0 0 Z " fill="#3F7A64" transform="translate(279,436)"/>
<path d="M0 0 C0.99 0.33 1.98 0.66 3 1 C3 1.66 3 2.32 3 3 C3.99 3.66 4.98 4.32 6 5 C2.21293268 5 -1.26513121 4.5745952 -5 4 C-5 3.34 -5 2.68 -5 2 C-3.35 2 -1.7 2 0 2 C0 1.34 0 0.68 0 0 Z " fill="#4D875F" transform="translate(314,433)"/>
<path d="M0 0 C2.625 1.4375 2.625 1.4375 5 3 C3.625 4.5 3.625 4.5 2 6 C1.34 6 0.68 6 0 6 C0 5.34 0 4.68 0 4 C-0.66 4 -1.32 4 -2 4 C-2 3.01 -2 2.02 -2 1 C-1.34 0.67 -0.68 0.34 0 0 Z " fill="#306D4A" transform="translate(226,395)"/>
<path d="M0 0 C1.32 0.33 2.64 0.66 4 1 C4 1.99 4 2.98 4 4 C2.35 4.66 0.7 5.32 -1 6 C-1.33 5.01 -1.66 4.02 -2 3 C-1.34 2.34 -0.68 1.68 0 1 C0 0.67 0 0.34 0 0 Z " fill="#35724A" transform="translate(280,372)"/>
<path d="M0 0 C1.32 0.33 2.64 0.66 4 1 C4.33 3.31 4.66 5.62 5 8 C2.5 5.6875 2.5 5.6875 0 3 C0 2.01 0 1.02 0 0 Z " fill="#306442" transform="translate(97,159)"/>
<path d="M0 0 C0.66 0.99 1.32 1.98 2 3 C0.8125 4.5 0.8125 4.5 -1 6 C-3.6875 6.1875 -3.6875 6.1875 -6 6 C-4.68 4.35 -3.36 2.7 -2 1 C-1.34 1.33 -0.68 1.66 0 2 C0 1.34 0 0.68 0 0 Z " fill="#478068" transform="translate(325,434)"/>
<path d="M0 0 C0.99 0.33 1.98 0.66 3 1 C3 1.66 3 2.32 3 3 C4.32 3.66 5.64 4.32 7 5 C7 6.65 7 8.3 7 10 C6.6596875 9.071875 6.6596875 9.071875 6.3125 8.125 C4.62070165 5.38589791 3.00755839 4.94975528 0 4 C0 2.68 0 1.36 0 0 Z " fill="#46896A" transform="translate(321,426)"/>
<path d="M0 0 C-0.66 1.65 -1.32 3.3 -2 5 C-4.31 5 -6.62 5 -9 5 C-6.45523312 2.20075644 -3.92372883 0 0 0 Z " fill="#3A6E51" transform="translate(257,381)"/>
<path d="M0 0 C0 0.66 0 1.32 0 2 C-3.08809695 3.76462683 -4.23312136 4 -8 4 C-8.33 3.01 -8.66 2.02 -9 1 C-5.846632 0.29925156 -3.27275026 0 0 0 Z " fill="#378058" transform="translate(323,363)"/>
<path d="M0 0 C-2.39763185 2.39763185 -3.33273498 2.34280586 -6.625 2.625 C-7.44226563 2.69976562 -8.25953125 2.77453125 -9.1015625 2.8515625 C-9.72804687 2.90054687 -10.35453125 2.94953125 -11 3 C-10.01 2.67 -9.02 2.34 -8 2 C-8 1.34 -8 0.68 -8 0 C-5.13822943 -1.43088528 -3.06624227 -0.59991697 0 0 Z " fill="#618A75" transform="translate(250,325)"/>
<path d="M0 0 C2.375 0.1875 2.375 0.1875 5 1 C6.375 3.375 6.375 3.375 7 6 C6.67 6.99 6.34 7.98 6 9 C5.34 7.35 4.68 5.7 4 4 C3.34 4 2.68 4 2 4 C1.34 2.68 0.68 1.36 0 0 Z " fill="#3C6B4F" transform="translate(128,321)"/>
<path d="M0 0 C0.66 0 1.32 0 2 0 C2.33 1.65 2.66 3.3 3 5 C1.68 5.33 0.36 5.66 -1 6 C-1.33 5.34 -1.66 4.68 -2 4 C-1.0625 1.875 -1.0625 1.875 0 0 Z M-3 6 C-1 7 -1 7 -1 7 Z " fill="#005220" transform="translate(268,309)"/>
<path d="M0 0 C0.66 0.33 1.32 0.66 2 1 C1.67 3.31 1.34 5.62 1 8 C-3 3.25 -3 3.25 -3 1 C-2.01 0.67 -1.02 0.34 0 0 Z " fill="#27653E" transform="translate(125,309)"/>
<path d="M0 0 C0.66 0 1.32 0 2 0 C2.33 0.99 2.66 1.98 3 3 C3.99 3.33 4.98 3.66 6 4 C5.01 5.98 4.02 7.96 3 10 C1.11608215 6.73454239 0.50712033 3.71888239 0 0 Z " fill="#38825B" transform="translate(80,240)"/>
<path d="M0 0 C0.66 0.99 1.32 1.98 2 3 C1.01 3.33 0.02 3.66 -1 4 C-1.12375 4.78375 -1.2475 5.5675 -1.375 6.375 C-2 9 -2 9 -4 11 C-3.48964169 6.6109185 -2.47785723 3.66291938 0 0 Z " fill="#407050" transform="translate(91,142)"/>
<path d="M0 0 C3.59391114 1.33488128 6.75490696 2.96022723 10 5 C9.01 5.99 8.02 6.98 7 8 C7 6.68 7 5.36 7 4 C4.69 3.67 2.38 3.34 0 3 C0 2.01 0 1.02 0 0 Z " fill="#44765D" transform="translate(424,131)"/>
<path d="M0 0 C1.65 1.65 3.3 3.3 5 5 C4.67 5.99 4.34 6.98 4 8 C3.01 7.67 2.02 7.34 1 7 C0.67 4.69 0.34 2.38 0 0 Z " fill="#2D7140" transform="translate(392,76)"/>
<path d="M0 0 C0.99 0.33 1.98 0.66 3 1 C2.25 2.9375 2.25 2.9375 1 5 C-1.125 5.75 -1.125 5.75 -3 6 C-3.33 5.01 -3.66 4.02 -4 3 C-3.01 3 -2.02 3 -1 3 C-0.67 2.01 -0.34 1.02 0 0 Z " fill="#3E6E54" transform="translate(307,438)"/>
<path d="M0 0 C0 0.66 0 1.32 0 2 C-3.3 2 -6.6 2 -10 2 C-10 1.34 -10 0.68 -10 0 C-6.30581799 -1.231394 -3.7943739 -0.64432764 0 0 Z " fill="#124D2A" transform="translate(244,387)"/>
<path d="M0 0 C3.9492568 0.55105909 7.34920174 1.38935371 11 3 C10.34 3.66 9.68 4.32 9 5 C8.1646875 4.566875 8.1646875 4.566875 7.3125 4.125 C4.91505355 2.9586747 2.48403061 1.9660119 0 1 C0 0.67 0 0.34 0 0 Z " fill="#397055" transform="translate(171,362)"/>
<path d="M0 0 C4.875 4.625 4.875 4.625 6 8 C5.01 8.33 4.02 8.66 3 9 C0 2.25 0 2.25 0 0 Z " fill="#387952" transform="translate(143,318)"/>
<path d="M0 0 C0 0.66 0 1.32 0 2 C-1.41377782 2.36552803 -2.83120576 2.71695495 -4.25 3.0625 C-5.03890625 3.25972656 -5.8278125 3.45695312 -6.640625 3.66015625 C-9.10394822 4.01497267 -10.65604132 3.76877544 -13 3 C-11.39743892 2.49487756 -9.79288208 1.99608373 -8.1875 1.5 C-7.29417969 1.2215625 -6.40085938 0.943125 -5.48046875 0.65625 C-3 0 -3 0 0 0 Z " fill="#2E6A47" transform="translate(261,310)"/>
<path d="M0 0 C0.66 0.33 1.32 0.66 2 1 C-0.475 5.455 -0.475 5.455 -3 10 C-4.2077558 6.37673261 -3.54311128 5.35853631 -2 2 C-1.34 2 -0.68 2 0 2 C0 1.34 0 0.68 0 0 Z " fill="#418D51" transform="translate(309,280)"/>
<path d="M0 0 C2.475 0.495 2.475 0.495 5 1 C4.67 2.32 4.34 3.64 4 5 C2.68 4.67 1.36 4.34 0 4 C0 2.68 0 1.36 0 0 Z " fill="#D1EBD9" transform="translate(179,257)"/>
<path d="M0 0 C0.33 1.32 0.66 2.64 1 4 C-2.3 3.34 -5.6 2.68 -9 2 C-9 1.67 -9 1.34 -9 1 C-3.375 -1.125 -3.375 -1.125 0 0 Z " fill="#2F5F44" transform="translate(100,187)"/>
<path d="M0 0 C1.65 0 3.3 0 5 0 C5.33 1.98 5.66 3.96 6 6 C5.01 6.495 5.01 6.495 4 7 C3.34 6.34 2.68 5.68 2 5 C2 4.01 2 3.02 2 2 C1.34 2 0.68 2 0 2 C0 1.34 0 0.68 0 0 Z " fill="#025222" transform="translate(87,180)"/>
<path d="M0 0 C0.66 0 1.32 0 2 0 C3.35439668 2.70879335 3.06501451 5.00933268 3 8 C2.01 8.495 2.01 8.495 1 9 C0.67 6.03 0.34 3.06 0 0 Z " fill="#43745B" transform="translate(86,158)"/>
<path d="M0 0 C1.8125 0.1875 1.8125 0.1875 4 1 C5.8125 3.4375 5.8125 3.4375 7 6 C6.67 6.66 6.34 7.32 6 8 C5.34 7.67 4.68 7.34 4 7 C4 6.01 4 5.02 4 4 C2.68 3.34 1.36 2.68 0 2 C0 1.34 0 0.68 0 0 Z " fill="#306245" transform="translate(406,157)"/>
<path d="M0 0 C4.24822374 0.47202486 6.19989709 2.96655518 9 6 C8.01 6.33 7.02 6.66 6 7 C5.566875 6.54625 5.13375 6.0925 4.6875 5.625 C2.89201658 3.79975666 2.89201658 3.79975666 0 2 C0 1.34 0 0.68 0 0 Z " fill="#3E7052" transform="translate(126,140)"/>
<path d="M0 0 C0.66 0.33 1.32 0.66 2 1 C1.67 2.98 1.34 4.96 1 7 C1.66 7 2.32 7 3 7 C2.67 7.66 2.34 8.32 2 9 C1.01 8.34 0.02 7.68 -1 7 C-1.25 3.9375 -1.25 3.9375 -1 1 C-0.67 0.67 -0.34 0.34 0 0 Z " fill="#4E785D" transform="translate(201,433)"/>
<path d="M0 0 C0.33 0.99 0.66 1.98 1 3 C-4.94 2.01 -4.94 2.01 -11 1 C-6.46780033 -1.26609984 -4.82227075 -0.92735976 0 0 Z " fill="#4F7F63" transform="translate(288,434)"/>
<path d="M0 0 C0.99 0.33 1.98 0.66 3 1 C2.67 2.65 2.34 4.3 2 6 C-0.475 5.01 -0.475 5.01 -3 4 C-2.01 2.68 -1.02 1.36 0 0 Z " fill="#035226" transform="translate(332,344)"/>
<path d="M0 0 C0.66 0.99 1.32 1.98 2 3 C1.01 4.98 0.02 6.96 -1 9 C-2.32 8.67 -3.64 8.34 -5 8 C-4.01 7.67 -3.02 7.34 -2 7 C-1.3185177 5.10820797 -1.3185177 5.10820797 -1 3 C-0.67 2.01 -0.34 1.02 0 0 Z " fill="#215F3B" transform="translate(384,301)"/>
<path d="M0 0 C2.475 0.495 2.475 0.495 5 1 C5 3.64 5 6.28 5 9 C3 5.25 3 5.25 3 3 C2.34 2.67 1.68 2.34 1 2 C0.67 1.34 0.34 0.68 0 0 Z " fill="#49785C" transform="translate(312,256)"/>
<path d="M0 0 C3.3 0 6.6 0 10 0 C10.33 0.66 10.66 1.32 11 2 C6.70700357 3.26264601 4.12168689 2.62950412 0 1 C0 0.67 0 0.34 0 0 Z " fill="#3D7154" transform="translate(101,235)"/>
<path d="M0 0 C1.125 1.75 1.125 1.75 2 4 C1.125 6.25 1.125 6.25 0 8 C-0.99 8 -1.98 8 -3 8 C-1.125 1.125 -1.125 1.125 0 0 Z " fill="#317658" transform="translate(84,224)"/>
<path d="M0 0 C1.32 0.66 2.64 1.32 4 2 C3.67 2.99 3.34 3.98 3 5 C1.35 5 -0.3 5 -2 5 C-1.34 3.35 -0.68 1.7 0 0 Z " fill="#045225" transform="translate(115,144)"/>
<path d="M0 0 C3.16115776 1.36983503 3.9927092 1.9890638 6 5 C4.02 5 2.04 5 0 5 C-0.5625 3.0625 -0.5625 3.0625 -1 1 C-0.67 0.67 -0.34 0.34 0 0 Z " fill="#326346" transform="translate(386,71)"/>
<path d="M0 0 C2.475 0.495 2.475 0.495 5 1 C5 2.32 5 3.64 5 5 C3.68 4.67 2.36 4.34 1 4 C0.67 2.68 0.34 1.36 0 0 Z " fill="#2D5F41" transform="translate(364,66)"/>
<path d="M0 0 C0.33 0 0.66 0 1 0 C1.33 2.97 1.66 5.94 2 9 C1.01 9 0.02 9 -1 9 C-0.67 6.03 -0.34 3.06 0 0 Z " fill="#4D7E67" transform="translate(244,420)"/>
<path d="M0 0 C0.99 0.33 1.98 0.66 3 1 C3 1.66 3 2.32 3 3 C3.99 3.33 4.98 3.66 6 4 C6 4.99 6 5.98 6 7 C5.34 7 4.68 7 4 7 C4 6.34 4 5.68 4 5 C3.34 5 2.68 5 2 5 C2 4.34 2 3.68 2 3 C1.34 3 0.68 3 0 3 C0 2.01 0 1.02 0 0 Z " fill="#4D7B61" transform="translate(145,340)"/>
<path d="M0 0 C0.99 0 1.98 0 3 0 C3 1.32 3 2.64 3 4 C3.66 4 4.32 4 5 4 C5.33 4.99 5.66 5.98 6 7 C5.34 7.66 4.68 8.32 4 9 C2.68 6.03 1.36 3.06 0 0 Z " fill="#2C724E" transform="translate(79,210)"/>
<path d="M0 0 C0.66 0 1.32 0 2 0 C1.5359375 1.1446875 1.5359375 1.1446875 1.0625 2.3125 C0.32106407 4.18789677 -0.36228217 6.08684652 -1 8 C-1.66 8 -2.32 8 -3 8 C-2.45276317 4.62537285 -1.9451 2.91765 0 0 Z " fill="#477059" transform="translate(294,174)"/>
<path d="M0 0 C1.4540625 0.0309375 1.4540625 0.0309375 2.9375 0.0625 C3.2675 0.7225 3.5975 1.3825 3.9375 2.0625 C2.6175 2.0625 1.2975 2.0625 -0.0625 2.0625 C-0.0625 2.7225 -0.0625 3.3825 -0.0625 4.0625 C-1.0525 4.3925 -2.0425 4.7225 -3.0625 5.0625 C-3.625 3.125 -3.625 3.125 -4.0625 1.0625 C-3.0625 0.0625 -3.0625 0.0625 0 0 Z " fill="#427A63" transform="translate(411.0625,150.9375)"/>
<path d="M0 0 C0.66 0 1.32 0 2 0 C2 1.65 2 3.3 2 5 C1.34 5 0.68 5 0 5 C-0.33 5.66 -0.66 6.32 -1 7 C-1.625 4.625 -1.625 4.625 -2 2 C-1.34 1.34 -0.68 0.68 0 0 Z " fill="#2D6143" transform="translate(433,137)"/>
<path d="M0 0 C0.66 0.99 1.32 1.98 2 3 C0.68 4.32 -0.64 5.64 -2 7 C-2.66 6.67 -3.32 6.34 -4 6 C-2.68 4.02 -1.36 2.04 0 0 Z " fill="#306F46" transform="translate(307,121)"/>
<path d="M0 0 C0.99 0.33 1.98 0.66 3 1 C0.525 4.465 0.525 4.465 -2 8 C-2.66 7.34 -3.32 6.68 -4 6 C-3.34 5.01 -2.68 4.02 -2 3 C-1.34 3 -0.68 3 0 3 C0 2.01 0 1.02 0 0 Z " fill="#2E6346" transform="translate(324,118)"/>
<path d="M0 0 C1.65 1.65 3.3 3.3 5 5 C4.67 5.99 4.34 6.98 4 8 C1 6 1 6 0.3125 2.875 C0.209375 1.92625 0.10625 0.9775 0 0 Z " fill="#45745C" transform="translate(396,108)"/>
<path d="M0 0 C1.64826111 2.96687001 2.44271087 5.65626525 3 9 C2.34 9 1.68 9 1 9 C0.67 9.99 0.34 10.98 0 12 C-1.53166168 7.91556885 -0.63081652 4.20544343 0 0 Z " fill="#1E5739" transform="translate(301,98)"/>
<path d="M0 0 C0.66 0 1.32 0 2 0 C2 0.99 2 1.98 2 3 C2.66 3.33 3.32 3.66 4 4 C3.67 5.65 3.34 7.3 3 9 C0.23776722 6.23776722 0.42143709 3.79293383 0 0 Z " fill="#4D876E" transform="translate(266,406)"/>
<path d="M0 0 C2.97 0 5.94 0 9 0 C8.67 1.32 8.34 2.64 8 4 C7.01 3.34 6.02 2.68 5 2 C3.34450469 1.61500109 1.6777567 1.27206865 0 1 C0 0.67 0 0.34 0 0 Z " fill="#2D6544" transform="translate(217,296)"/>
<path d="M0 0 C0.98120464 3.05263664 0.98120464 4.94736336 0 8 C-0.99 8 -1.98 8 -3 8 C-2.67 6.35 -2.34 4.7 -2 3 C-1.34 3 -0.68 3 0 3 C0 2.01 0 1.02 0 0 Z " fill="#25613E" transform="translate(379,285)"/>
<path d="M0 0 C1.125 1.625 1.125 1.625 2 4 C1.125 7.25 1.125 7.25 0 10 C-0.9097643 6.92954549 -1.17299981 4.20049657 -1 1 C-0.67 0.67 -0.34 0.34 0 0 Z " fill="#2A6240" transform="translate(382,215)"/>
<path d="M0 0 C-3.21451269 1.60725635 -6.43612536 1.05748185 -10 1 C-10 0.34 -10 -0.32 -10 -1 C-6.18510326 -2.46726798 -3.70988378 -1.43336419 0 0 Z " fill="#0F4E2A" transform="translate(255,197)"/>
<path d="M0 0 C1.32 0.33 2.64 0.66 4 1 C3.625 3.4375 3.625 3.4375 3 6 C2.01 6.495 2.01 6.495 1 7 C0.67 4.69 0.34 2.38 0 0 Z " fill="#094A27" transform="translate(77,189)"/>
<path d="M0 0 C2.64 0.66 5.28 1.32 8 2 C7.01 2.33 6.02 2.66 5 3 C4.67 3.99 4.34 4.98 4 6 C2.68 4.02 1.36 2.04 0 0 Z " fill="#43765A" transform="translate(140,171)"/>
<path d="M0 0 C0.66 0 1.32 0 2 0 C1.67 2.64 1.34 5.28 1 8 C0.34 7.34 -0.32 6.68 -1 6 C-0.625 2.875 -0.625 2.875 0 0 Z " fill="#205D3C" transform="translate(292,149)"/>
<path d="M0 0 C6.15234375 0.5859375 6.15234375 0.5859375 8 1 C8.33 1.66 8.66 2.32 9 3 C3.46153846 3.36923077 3.46153846 3.36923077 1.125 1.5 C0.75375 1.005 0.3825 0.51 0 0 Z " fill="#3E7253" transform="translate(112,135)"/>
<path d="M0 0 C2.25 0.25 2.25 0.25 4 1 C1.6875 3.0625 1.6875 3.0625 -1 5 C-1.99 4.67 -2.98 4.34 -4 4 C-2.25 1.9375 -2.25 1.9375 0 0 Z " fill="#326741" transform="translate(331,113)"/>
<path d="M0 0 C0.66 0.33 1.32 0.66 2 1 C2 1.99 2 2.98 2 4 C2.99 4 3.98 4 5 4 C5 4.66 5 5.32 5 6 C0.25 4.125 0.25 4.125 -2 3 C-2 2.34 -2 1.68 -2 1 C-1.34 0.67 -0.68 0.34 0 0 Z " fill="#5B8F77" transform="translate(379,108)"/>
</svg>
